<?xml version="1.0" encoding="UTF-8" standalone="no"?>
<!-- Created with Inkscape (http://www.inkscape.org/) -->

<svg
   width="876.10675mm"
   height="391.0965mm"
   viewBox="0 0 876.10675 391.09649"
   version="1.1"
   id="svg5"
   xml:space="preserve"
   sodipodi:docname="evo-DMA-rework-main.svg"
   inkscape:version="1.3.2 (091e20e, 2023-11-25, custom)"
   xmlns:inkscape="http://www.inkscape.org/namespaces/inkscape"
   xmlns:sodipodi="http://sodipodi.sourceforge.net/DTD/sodipodi-0.dtd"
   xmlns:xlink="http://www.w3.org/1999/xlink"
   xmlns="http://www.w3.org/2000/svg"
   xmlns:svg="http://www.w3.org/2000/svg"><sodipodi:namedview
     id="namedview1"
     pagecolor="#505050"
     bordercolor="#ffffff"
     borderopacity="1"
     inkscape:showpageshadow="0"
     inkscape:pageopacity="0"
     inkscape:pagecheckerboard="1"
     inkscape:deskcolor="#505050"
     inkscape:document-units="mm"
     showgrid="false"
     inkscape:zoom="4.672714"
     inkscape:cx="3323.4433"
     inkscape:cy="122.5198"
     inkscape:window-width="5027"
     inkscape:window-height="1417"
     inkscape:window-x="2645"
     inkscape:window-y="-8"
     inkscape:window-maximized="1"
     inkscape:current-layer="svg5" /><defs
     id="defs2"><linearGradient
       id="linearGradient5"><stop
         style="stop-color:#004115;stop-opacity:1;"
         offset="0"
         id="stop5" /><stop
         style="stop-color:#009d32;stop-opacity:1;"
         offset="1"
         id="stop6" /></linearGradient><linearGradient
       id="linearGradient3"><stop
         style="stop-color:#7e0017;stop-opacity:1;"
         offset="0"
         id="stop3" /><stop
         style="stop-color:#e9002b;stop-opacity:1;"
         offset="1"
         id="stop4" /></linearGradient><linearGradient
       id="linearGradient1"><stop
         style="stop-color:#00547b;stop-opacity:1;"
         offset="0"
         id="stop1" /><stop
         style="stop-color:#00a0e9;stop-opacity:1;"
         offset="1"
         id="stop2" /></linearGradient><linearGradient
       id="linearGradient26"><stop
         style="stop-color:#00547b;stop-opacity:1"
         offset="0"
         id="stop21" /><stop
         style="stop-color:#00a0e9;stop-opacity:1"
         offset="0.18244401"
         id="stop22" /><stop
         style="stop-color:#7e0017;stop-opacity:1"
         offset="0.42890713"
         id="stop23" /><stop
         style="stop-color:#e9002b;stop-opacity:1"
         offset="0.55911297"
         id="stop24" /><stop
         style="stop-color:#004115;stop-opacity:1"
         offset="0.81941402"
         id="stop25" /><stop
         style="stop-color:#009d32;stop-opacity:1"
         offset="1"
         id="stop26" /></linearGradient><linearGradient
       id="linearGradient97"><stop
         style="stop-color:#d9d9d9;stop-opacity:1;"
         offset="0"
         id="stop96" /><stop
         style="stop-color:#666666;stop-opacity:1;"
         offset="1"
         id="stop97" /></linearGradient><linearGradient
       xlink:href="#linearGradient97"
       id="linearGradient30"
       x1="-679.86523"
       y1="-2131.687"
       x2="-679.86523"
       y2="-1846.5912"
       gradientUnits="userSpaceOnUse"
       gradientTransform="translate(1082.4576,2145.8696)" /><linearGradient
       xlink:href="#linearGradient97"
       id="linearGradient32"
       x1="-537.03833"
       y1="-1846.5912"
       x2="-537.03833"
       y2="-1770.3915"
       gradientUnits="userSpaceOnUse"
       gradientTransform="translate(1087.9499,2145.8696)" /><linearGradient
       xlink:href="#linearGradient1"
       id="linearGradient2"
       x1="-769.13361"
       y1="-1797.6505"
       x2="-706.62727"
       y2="-1797.6505"
       gradientUnits="userSpaceOnUse"
       gradientTransform="translate(1082.4576,2145.8696)" /><linearGradient
       xlink:href="#linearGradient3"
       id="linearGradient4"
       x1="-708.95459"
       y1="-1797.6504"
       x2="-647.66808"
       y2="-1797.6504"
       gradientUnits="userSpaceOnUse"
       gradientTransform="translate(1082.4576,2145.8696)" /><linearGradient
       xlink:href="#linearGradient5"
       id="linearGradient6"
       x1="-650.56752"
       y1="-1797.6505"
       x2="-586.67458"
       y2="-1797.6505"
       gradientUnits="userSpaceOnUse"
       gradientTransform="translate(1082.4576,2145.8696)" /><linearGradient
       inkscape:collect="always"
       xlink:href="#linearGradient26"
       id="linearGradient8"
       x1="3.5999999"
       y1="195.04825"
       x2="872.50665"
       y2="195.04825"
       gradientUnits="userSpaceOnUse" /></defs><path
     id="path25"
     style="font-size:412.091px;line-height:1.25;font-family:Makhina;-inkscape-font-specification:Makhina;fill:#212121;fill-opacity:1;stroke:none;stroke-width:3.175;stroke-linecap:round;stroke-linejoin:round;stroke-opacity:1"
     d="m 833.44195,307.9986 c 9.97518,0 19.39247,-3.7049 26.29882,-10.6113 7.18098,-7.1809 11.17774,-16.7517 11.17774,-26.8672 V 42.6646 c 0,-9.7873 -4.03383,-19.0743 -11.07031,-26.1699 C 853.0071,9.2238 843.50895,5.1881 833.44195,5.1881 H 518.32866 c -3.59205,10e-5 -6.83981,2.1369 -8.26171,5.4355 L 434.94976,184.8638 361.54155,10.69 C 360.1361,7.3562 356.87042,5.1886 353.25249,5.1881 H 42.6646 c -10.1169,0 -19.687,3.9996 -26.8672,11.1797 -6.907,6.907 -10.6093,16.325 -10.6093,26.2988 v 227.8555 c 0,9.9738 3.6493,19.4176 10.3945,26.6445 0.1408,0.1508 0.2867,0.2967 0.4375,0.4375 7.2263,6.7446 16.6695,10.3965 26.6445,10.3965 h 265.33543 v 39.7196 c 0,9.8951 3.89811,19.2751 10.90625,26.2832 7.00805,7.008 16.38798,10.9063 26.2832,10.9063 12.39357,0 424.78578,-0.8675 470.19353,-0.8675 3.17352,0 6.19206,-1.4012 8.18359,-3.3926 2.02934,-2.0297 3.36524,-5.3831 3.36524,-8.1563 V 308.0007 Z M 94.38533,94.3854 H 218.8033 v 17.8965 H 94.38533 Z m 560.64063,0 H 781.72323 V 218.8033 H 655.02596 Z" /><path
     id="path1"
     style="font-weight:normal;font-size:412.091px;line-height:1.25;font-family:Makhina;-inkscape-font-specification:Makhina;fill:url(#linearGradient30);fill-opacity:1;stroke:none;stroke-width:6.4055;stroke-linecap:round;stroke-linejoin:round;stroke-miterlimit:4;stroke-dasharray:none;stroke-opacity:1"
     d="m 42.6654,14.1826 c -7.9749,0 -14.8103,2.8483 -20.5067,8.5447 -5.3166,5.3166 -7.9746,11.9618 -7.9746,19.9368 v 227.8555 c 0,7.9749 2.658,14.8103 7.9746,20.5067 5.6964,5.3166 12.5319,7.9758 20.5067,7.9758 h 256.33823 v -71.205 H 85.38913 v -35.3172 h 185.1325 c 7.9749,0 14.6201,-2.8483 19.9367,-8.5447 5.6964,-5.6965 8.5453,-12.3428 8.5453,-19.9379 v -41.2777 l 66.4921,157.7609 c 2.2785,5.3164 5.8862,9.8739 10.823,13.6715 5.3168,3.4177 11.2056,4.9433 17.659,5.1263 l 81.3224,-0.012 c 6.453,0.183 12.152,-1.7091 17.0888,-5.1268 5.3168,-3.7977 9.1146,-8.3545 11.3932,-13.671 l 71.0438,-164.7653 v 154.8165 c 0,7.9749 2.6585,14.8104 7.9752,20.5068 5.6963,5.3166 12.5319,7.9757 20.5068,7.9757 h 230.1338 c 7.9749,0 14.6201,-2.6591 19.9367,-7.9757 5.6965,-5.6964 8.5448,-12.5319 8.5448,-20.5068 V 42.6643 c 0,-7.5952 -2.8483,-14.2404 -8.5448,-19.9368 -5.3166,-5.6964 -11.9618,-8.5447 -19.9367,-8.5447 h -315.1124 l -83.4736,193.6216 -81.6033,-193.6216 z m 42.72373,71.205 h 142.4095 v 35.8872 H 85.38913 Z m 560.6417,0 h 144.6876 v 142.4095 h -144.6876 z" /><path
     id="text2"
     style="font-size:91.5721px;font-family:'Typo Round Bold Demo';-inkscape-font-specification:'Typo Round Bold Demo';fill:url(#linearGradient32);stroke-width:100.244;stroke-linecap:round;stroke-linejoin:round;paint-order:stroke fill markers"
     d="m 536.12205,299.4584 c -1.59893,0 -2.98576,0.571 -4.16047,1.7131 -1.17472,1.1747 -1.76165,2.5779 -1.76165,4.2095 v 19.0407 c -3.71999,-3.2631 -9.12061,-4.8948 -16.2016,-4.8948 -7.76625,0 -14.4071,2.7572 -19.92178,8.2719 -1.61222,1.6122 -2.95966,3.3324 -4.10053,5.1371 2.76119,4.3681 4.17081,9.2878 4.17081,14.7831 0,5.4958 -1.40973,10.4163 -4.17132,14.7846 1.14098,1.805 2.48853,3.5257 4.10104,5.1382 5.51468,5.5147 12.15553,8.2719 19.92178,8.2719 7.73362,0 14.35748,-2.7407 19.87217,-8.2228 5.51473,-5.4495 8.28886,-12.0574 8.32146,-19.8236 V 305.381 c 0,-1.6316 -0.58744,-3.0348 -1.76217,-4.2095 -1.17473,-1.1421 -2.56154,-1.7131 -4.16047,-1.7131 z m 39.40276,20.0685 c -6.49365,0 -12.04137,2.3004 -16.6424,6.9014 -4.60101,4.6337 -6.90138,10.1809 -6.90138,16.6419 v 26.9208 c 0,1.6642 0.58743,3.051 1.76216,4.1605 1.17473,1.1747 2.56153,1.7622 4.16047,1.7622 h 0.14676 c 1.59894,0 2.98574,-0.5875 4.16047,-1.7622 1.17473,-1.1095 1.76218,-2.4963 1.76217,-4.1605 v -26.9208 c 0,-3.1979 1.126,-5.9226 3.37757,-8.1742 2.25157,-2.2515 4.97631,-3.377 8.17418,-3.377 3.19787,0 5.92261,1.1255 8.17418,3.377 2.25155,2.2516 3.37705,4.9763 3.37705,8.1742 v 26.9208 c 0,1.6642 0.58744,3.051 1.76217,4.1605 1.17472,1.1747 2.57799,1.7622 4.20956,1.7622 h 0.0977 c 1.6642,0 3.051,-0.5875 4.16047,-1.7622 1.17473,-1.1095 1.76216,-2.4963 1.76216,-4.1605 v -26.9208 c 0,-3.1979 1.12602,-5.9226 3.37758,-8.1742 2.25154,-2.2515 4.97631,-3.377 8.17417,-3.377 3.23051,0 5.97119,1.1255 8.22276,3.377 2.25157,2.2516 3.37757,4.9763 3.37757,8.1742 v 26.9208 c 0,1.6642 0.58744,3.051 1.76217,4.1605 1.10944,1.1747 2.49627,1.7622 4.16047,1.7622 h 0.0977 c 1.63157,0 3.03484,-0.5875 4.20957,-1.7622 1.14208,-1.1421 1.71307,-2.5289 1.71307,-4.1605 v -26.9208 c 0,-6.461 -2.30036,-12.0082 -6.90139,-16.6419 -4.601,-4.601 -10.14823,-6.9014 -16.64188,-6.9014 -7.76625,0 -13.6072,2.5777 -17.52296,7.7334 -3.94837,-5.1557 -9.8058,-7.7334 -17.57205,-7.7334 z m 96.62149,0 c -7.76624,0 -14.4071,2.7572 -19.92178,8.2719 -5.51471,5.5146 -8.27185,12.1556 -8.27185,19.9217 0,7.7663 2.75714,14.4066 8.27185,19.9213 5.51468,5.5147 12.15554,8.2719 19.92178,8.2719 7.08099,0 12.48162,-1.9743 16.2016,-5.9227 0,1.6642 0.58692,3.051 1.76165,4.1605 1.17471,1.1747 2.56155,1.7622 4.16046,1.7622 h 0.14728 c 1.59895,0 2.98575,-0.5875 4.16047,-1.7622 1.17473,-1.1095 1.76217,-2.4963 1.76217,-4.1605 v -22.2705 c 0,-7.7661 -2.75767,-14.4071 -8.27236,-19.9217 -5.5147,-5.5147 -12.15502,-8.2719 -19.92127,-8.2719 z m 0,11.9921 c 4.47051,0 8.28833,1.5822 11.45357,4.7475 3.16523,3.1652 4.74803,6.9837 4.74803,11.454 0,4.5031 -1.5828,8.3369 -4.74803,11.5022 -3.13261,3.1326 -6.95044,4.6989 -11.45357,4.6989 -4.5031,0 -8.33741,-1.5663 -11.50266,-4.6989 -3.13259,-3.1653 -4.69893,-6.9991 -4.69893,-11.5022 0,-4.4703 1.56634,-8.2888 4.69893,-11.454 3.16525,-3.1653 6.99956,-4.7475 11.50266,-4.7475 z m -158.14797,0.098 c 4.47051,0 8.28834,1.5828 11.45357,4.7481 3.16523,3.1651 4.74803,6.9995 4.74803,11.5026 0,4.4704 -1.5828,8.2883 -4.74803,11.4536 -3.16523,3.1652 -6.98306,4.7475 -11.45357,4.7475 -4.50311,0 -8.33741,-1.5823 -11.50266,-4.7475 -3.13259,-3.1653 -4.69893,-6.9832 -4.69893,-11.4536 0,-4.5031 1.56634,-8.3375 4.69893,-11.5026 3.16525,-3.1653 6.99955,-4.7481 11.50266,-4.7481 z m 212.78908,12.8075 c -4.2255,0 -7.83368,1.4956 -10.82518,4.4871 -2.99151,2.9915 -4.48758,6.6002 -4.48758,10.8257 0,4.2255 1.49607,7.8338 4.48758,10.8251 2.9915,2.9915 6.59968,4.4876 10.82518,4.4876 1.58923,0 3.13189,-0.2338 4.62762,-0.7012 1.1966,-0.3926 1.79473,-1.2061 1.79473,-2.4402 0,-0.8787 -0.34588,-1.5705 -1.03767,-2.0753 -0.71048,-0.5048 -1.47693,-0.626 -2.2996,-0.3643 -0.99093,0.3178 -2.01936,0.4764 -3.08508,0.4764 -2.80453,0 -5.19754,-0.9905 -7.17941,-2.9724 -1.96315,-1.9818 -2.94452,-4.3656 -2.94452,-7.1515 0,-2.8045 0.98137,-5.198 2.94452,-7.1799 1.98187,-1.9819 4.37488,-2.9724 7.17941,-2.9724 1.06572,0 2.09415,0.1678 3.08508,0.5043 0.82267,0.2617 1.58912,0.1313 2.2996,-0.3922 0.69179,-0.5048 1.03767,-1.1873 1.03767,-2.0474 v -0.1406 c 0,-1.2527 -0.59813,-2.0657 -1.79473,-2.4396 -1.49573,-0.4861 -3.03839,-0.7292 -4.62762,-0.7292 z m 25.66148,0 c -4.22549,0 -7.83367,1.4956 -10.82518,4.4871 -2.99148,2.9915 -4.48758,6.6002 -4.48758,10.8257 0,4.2255 1.4961,7.8338 4.48758,10.8251 2.99151,2.9915 6.59969,4.4876 10.82518,4.4876 4.22549,0 7.8342,-1.4961 10.8257,-4.4876 2.99151,-2.9913 4.48706,-6.5996 4.48706,-10.8251 0,-4.2255 -1.49555,-7.8342 -4.48706,-10.8257 -2.9915,-2.9915 -6.60021,-4.4871 -10.8257,-4.4871 z m 32.72927,0 c -3.49632,0 -6.47875,1.2341 -8.94674,3.7021 -2.46799,2.4867 -3.70158,5.4685 -3.70158,8.9462 v 15.4249 c 0,0.7105 0.25225,1.3087 0.75706,1.7948 0.50482,0.5048 1.10293,0.7575 1.79472,0.7575 h 0.0842 c 0.69179,0 1.28992,-0.2527 1.79472,-0.7575 0.50481,-0.4861 0.75758,-1.0843 0.75758,-1.7948 v -15.4249 c 10e-6,-2.0567 0.72913,-3.8141 2.18746,-5.2725 1.45836,-1.4583 3.21588,-2.1875 5.27255,-2.1875 2.05665,0 3.81419,0.7292 5.27255,2.1875 1.45836,1.4584 2.18746,3.2158 2.18746,5.2725 v 15.4249 c 0,0.7105 0.25225,1.3087 0.75706,1.7948 0.50482,0.5048 1.11267,0.7575 1.82315,0.7575 h 0.0558 c 0.71047,0 1.30913,-0.2527 1.79523,-0.7575 0.50481,-0.4861 0.75706,-1.0843 0.75706,-1.7948 v -15.4249 c 0,-2.0567 0.72911,-3.8141 2.18747,-5.2725 1.45836,-1.4583 3.21591,-2.1875 5.27254,-2.1875 2.07536,0 3.8421,0.7292 5.30046,2.1875 1.45834,1.4584 2.18746,3.2158 2.18746,5.2725 v 15.4249 c 0,0.7105 0.25277,1.3087 0.75758,1.7948 0.48612,0.5048 1.08424,0.7575 1.79472,0.7575 h 0.0563 c 0.71048,0 1.3178,-0.2527 1.82262,-0.7575 0.48611,-0.4861 0.72916,-1.0843 0.72916,-1.7948 v -15.4249 c 0,-3.4777 -1.23361,-6.4595 -3.70158,-8.9462 -2.46799,-2.468 -5.45043,-3.7021 -8.94675,-3.7021 -4.16939,0 -7.51613,1.664 -10.04021,4.992 -2.54278,-3.328 -5.89871,-4.992 -10.06812,-4.992 z m -32.72927,5.2447 c 2.80453,0 5.18835,0.9905 7.1515,2.9724 1.98187,1.9819 2.97295,4.3754 2.97295,7.1799 0,2.7859 -0.99108,5.1697 -2.97295,7.1515 -1.96315,1.9819 -4.34697,2.9724 -7.1515,2.9724 -2.80452,0 -5.19755,-0.9905 -7.1794,-2.9724 -1.96317,-1.9818 -2.94453,-4.3656 -2.94453,-7.1515 0,-2.8045 0.98136,-5.198 2.94453,-7.1799 1.98185,-1.9819 4.37488,-2.9724 7.1794,-2.9724 z m -44.67996,19.6447 c -1.82238,0 -3.30002,1.4772 -3.30005,3.2996 3e-5,1.8224 1.47767,3.2995 3.30005,3.2995 1.82241,0 3.29951,-1.4771 3.29954,-3.2995 -3e-5,-1.8224 -1.47713,-3.2996 -3.29954,-3.2996 z" /><path
     id="path5"
     style="font-size:91.5721px;font-family:'Typo Round Bold Demo';-inkscape-font-specification:'Typo Round Bold Demo';fill:url(#linearGradient6);fill-opacity:1;stroke-width:100.244;stroke-linecap:round;stroke-linejoin:round;paint-order:stroke fill markers"
     d="m 463.8368,319.5257 c -7.76627,0 -14.40707,2.7572 -19.92178,8.2719 -5.5147,5.5147 -8.27184,12.1556 -8.27184,19.9217 0,7.7663 2.75714,14.4066 8.27184,19.9213 5.51471,5.5147 12.15551,8.2719 19.92178,8.2719 7.76625,0 14.40656,-2.7572 19.92127,-8.2719 5.5147,-5.5147 8.27185,-12.155 8.27185,-19.9213 0,-7.7661 -2.75715,-14.407 -8.27185,-19.9217 -5.51471,-5.5147 -12.15502,-8.2719 -19.92127,-8.2719 z m 0,12.0902 c 4.47052,0 8.28836,1.5824 11.45357,4.7475 3.16525,3.1653 4.74751,6.9996 4.74751,11.5027 0,4.4705 -1.58226,8.2884 -4.74751,11.4536 -3.16521,3.1653 -6.98305,4.748 -11.45357,4.748 -4.50313,0 -8.33739,-1.5827 -11.50265,-4.748 -3.13258,-3.1652 -4.69894,-6.9831 -4.69894,-11.4536 0,-4.5031 1.56636,-8.3374 4.69894,-11.5027 3.16526,-3.1651 6.99952,-4.7475 11.50265,-4.7475 z" /><path
     style="font-size:91.5721px;font-family:'Typo Round Bold Demo';-inkscape-font-specification:'Typo Round Bold Demo';fill:url(#linearGradient4);fill-opacity:1;stroke-width:100.244;stroke-linecap:round;stroke-linejoin:round;paint-order:stroke fill markers"
     d="m 404.12123,359.3197 15.51622,-36.172 c 1.04419,-2.4147 2.87153,-3.622 5.48201,-3.622 h 0.0985 c 2.12101,0 3.76889,0.8974 4.94364,2.6921 0.68528,1.0116 1.02792,2.0721 1.02792,3.1815 0,0.7832 -0.17949,1.5827 -0.53848,2.3985 l -18.15936,42.4371 c -1.50105,3.7852 -4.27471,5.6778 -8.321,5.6778 -4.11153,0 -6.90151,-1.8926 -8.36994,-5.6778 l -18.20829,-42.4371 c -0.32629,-0.8158 -0.48944,-1.5989 -0.48944,-2.3494 0,-1.1095 0.3426,-2.1864 1.02781,-3.2306 1.17475,-1.7947 2.82264,-2.6921 4.94365,-2.6921 h 0.1469 c 2.61049,0 4.42152,1.2073 5.43309,3.622 7.79891,18.241 12.30205,28.7483 13.50942,31.522 0,0.1305 0.65262,1.6805 1.95786,4.65 z"
     id="path3" /><path
     id="path2"
     style="font-size:91.5721px;font-family:'Typo Round Bold Demo';-inkscape-font-specification:'Typo Round Bold Demo';fill:url(#linearGradient2);fill-opacity:1;stroke-width:100.244;stroke-linecap:round;stroke-linejoin:round;paint-order:stroke fill markers"
     d="m 345.18875,319.5257 c -7.76628,0 -14.40663,2.7572 -19.92127,8.2719 -5.5147,5.5147 -8.27184,12.1556 -8.27184,19.9217 0,7.7663 2.75714,14.4066 8.27184,19.9213 5.51464,5.5147 12.15499,8.2719 19.92127,8.2719 6.06942,0 11.5518,-1.7783 16.44654,-5.3351 4.82943,-3.4263 8.20648,-7.9294 10.13168,-13.5093 0.26105,-0.7179 0.39171,-1.4196 0.39171,-2.1048 0,-1.1421 -0.37506,-2.2351 -1.12551,-3.2793 -1.20737,-1.6968 -2.82255,-2.5451 -4.8457,-2.5451 -2.83899,0 -4.73196,1.3379 -5.67821,4.0137 -1.10951,3.1978 -3.05078,5.8079 -5.82445,7.8311 -2.83891,2.0557 -6.00449,3.084 -9.49606,3.084 -5.25367,0 -9.1204,-1.5662 -11.60033,-4.6989 1.59891,-0.7505 7.01607,-3.2146 16.25069,-7.3913 7.43998,-3.3611 13.44395,-6.0694 18.01234,-8.1251 1.53367,-0.6852 2.5779,-1.7948 3.13262,-3.3285 0.26105,-0.6852 0.39171,-1.3704 0.39171,-2.0557 0,-0.8484 -0.19603,-1.6807 -0.58756,-2.4965 -2.21895,-4.8947 -5.62886,-8.8431 -10.22987,-11.8452 -4.63369,-3.0673 -9.75704,-4.6008 -15.3696,-4.6008 z m 0,12.0902 c 5.02522,0 8.74529,1.4358 11.16004,4.3073 l -27.36112,12.2855 v -0.3426 c 0,-4.5031 1.56629,-8.3374 4.69894,-11.5027 3.1652,-3.1651 6.99899,-4.7475 11.50214,-4.7475 z" /><path
     id="path1-8-2"
     style="color:#000000;-inkscape-font-specification:Makhina;opacity:1;fill:url(#linearGradient8);fill-opacity:1;stroke:none;stroke-linecap:round;stroke-linejoin:round;-inkscape-stroke:none"
     d="M 42.6648,3.6 C 32.1295,3.6 22.1448,7.7743 14.6743,15.2447 7.4577,22.4613 3.6,32.2996 3.6,42.6663 v 227.8553 c 0,10.3611 3.8016,20.2066 10.8226,27.7291 0.1656,0.1773 0.3364,0.3476 0.5137,0.5131 7.5217,7.0203 17.3661,10.8248 27.7285,10.8247 h 263.74775 v 38.1326 c 0,10.312 4.07059,20.1037 11.3714,27.4045 7.30071,7.3006 17.09394,11.3709 27.40608,11.3709 12.46763,0 424.80609,-0.8672 470.19352,-0.8672 3.6408,0 7.01102,-1.5623 9.30641,-3.8576 2.40119,-2.4016 3.83026,-5.9959 3.83026,-9.279 v -62.9042 h 4.92166 c 10.36823,0 20.20628,-3.8604 27.4221,-11.0763 7.47141,-7.4713 11.6427,-17.457 11.6427,-27.9906 V 42.6663 c 0,-10.2175 -4.21708,-19.903 -11.51971,-27.2733 C 853.84546,7.8124 843.92514,3.602 833.44188,3.602 H 518.32882 c -4.22159,1e-4 -8.04769,2.5178 -9.71879,6.3945 L 434.9675,180.817 363.00445,10.0745 c -1.65172,-3.9179 -5.5,-6.4719 -9.75186,-6.4725 z m 0,3.1739 v 0 h 310.58779 c 2.98397,5e-4 5.66676,1.7814 6.82594,4.531 l 73.40844,174.1738 c 0.54394,1.287 2.36521,1.2945 2.91971,0.012 l 75.11738,-174.24 c 1.1727,-2.7205 3.84226,-4.4766 6.80476,-4.4767 h 315.11306 c 9.64271,0 18.71067,3.8563 25.25014,10.8066 3.44168,3.441682 10.63867,12.180538 10.63867,25.0818 v 227.8553 c 0,9.6973 -3.82253,18.8538 -10.71304,25.7442 -6.59686,6.5969 -15.59365,10.1461 -25.17573,10.1461 H 603.30695 c -9.58776,-1e-4 -18.63001,-3.4994 -25.56071,-9.9684 -0.004,0 -0.18115,-0.1661 -0.36167,-0.3596 -6.46955,-6.9314 -9.96683,-15.9737 -9.96683,-25.5602 V 159.2894 c -2.7e-4,-0.7533 -0.52982,-1.4027 -1.26763,-1.5545 -0.73699,-0.1514 -1.47903,0.2353 -1.77715,0.9261 l -53.78115,124.7226 c -2.84462,6.6372 -7.6653,12.3302 -13.89631,16.7809 -4.85818,3.3391 -12.19214,6.7698 -21.60748,6.5029 -114.15802,0 21.41862,0.012 -81.34598,0.012 -7.46837,-0.2152 -14.8797,-2.0873 -21.42763,-6.2952 h -0.004 c -6.05702,-4.2173 -10.56484,-10.3466 -13.62495,-16.984 -16.49511,-39.1427 -32.99295,-78.2845 -49.48986,-117.4265 -0.64725,-1.5383 -2.92541,-1.1643 -3.04685,0.5002 -0.62303,8.4442 -4.20649,16.3832 -10.34975,22.578 -2.67606,2.67606 -10.86979,10.8361 -25.27757,10.8361 H 94.38489 c -0.87691,-2e-4 -1.58792,0.7106 -1.58801,1.5875 v 17.3261 c -1.9e-4,0.8771 0.7109,1.5882 1.58801,1.588 h 204.61904 c 4.11031,4e-4 7.40791,3.298 7.40833,7.4083 v 78.6128 H 42.6645 c -9.5875,0 -18.6298,-3.4995 -25.5607,-9.9684 -0.1243,-0.116 -0.2452,-0.2374 -0.3612,-0.3617 C 10.2732,289.1492 6.7758,280.107 6.7758,270.5204 V 42.6651 c 0,-9.581 3.5472,-18.579 10.1446,-25.1763 C 23.8103,10.599 32.966,6.7743 42.6645,6.7742 Z m 51.72038,86.0196 c -0.87691,1e-4 -1.58769,0.7111 -1.5875,1.588 v 0 17.8925 0 c -1.9e-4,0.8769 0.71059,1.5879 1.5875,1.588 h 124.41825 c 0.87711,2e-4 1.58821,-0.7109 1.58802,-1.588 v 0 -17.8925 0 c 1.9e-4,-0.8771 -0.71091,-1.5882 -1.58802,-1.588 z m 560.64072,0 c -0.87711,-2e-4 -1.58821,0.7109 -1.58802,1.588 v 0 124.4141 0 c 9e-5,0.8769 0.7111,1.5877 1.58802,1.5875 h 126.69717 c 0.87692,2e-4 1.58793,-0.7106 1.58802,-1.5875 v 0 -124.4141 0 c 1.9e-4,-0.8771 -0.71091,-1.5882 -1.58802,-1.588 z M 95.9732,95.9731 h 121.24221 v 14.717 H 95.9732 Z m 560.64072,0 H 780.13557 V 217.2112 H 656.61392 Z m -92.37111,71.005 v 103.5394 c 0,10.3609 3.80087,20.2061 10.82208,27.7285 0.16571,0.1776 0.33599,0.3479 0.51366,0.5137 7.52147,7.0204 17.36594,10.8241 27.72854,10.8242 h 222.03709 v 62.9067 c 0,2.2634 -1.2426,5.3774 -2.90008,7.0352 -1.68765,1.6876 -4.35432,2.9275 -7.06055,2.9275 -45.42787,0 -457.87405,0.8671 -470.19352,0.8671 -9.47826,0 -18.44692,-3.7259 -25.16229,-10.4412 -6.71543,-6.7154 -10.43915,-15.6821 -10.43915,-25.1602 l -5.2e-4,-119.9194 c -5.9e-4,-5.826 -4.7578,-10.5833 -10.58385,-10.5838 H 95.9732 v -14.1506 h 174.54852 c 10.48345,0 20.40239,-4.2113 27.54302,-11.791 5.28836,-5.3376 8.76071,-11.9193 10.33994,-18.9978 15.80134,37.4111 31.65599,75.2222 47.39038,112.4273 3.28604,7.0977 8.17795,13.9717 14.79703,18.3539 h 0.002 c 7.11346,4.5726 15.13319,6.5752 23.0818,6.8006 27.12256,0 54.24512,-0.01 81.36768,-0.012 11.29967,0 19.03825,-3.892 23.4957,-7.0962 6.64213,-4.7444 11.87132,-10.8839 14.96911,-18.1095 z"
     sodipodi:nodetypes="ccssccccsssscscsssscsccccccccccccccscsssscccsccccccccccccccscccccccsscssscccsccsccsccscccsccsccsccscccccccccccccsscccscssscccccsccccccccc" /></svg>
