<?xml version="1.0" encoding="UTF-8" standalone="no"?>
<!-- Created with Inkscape (http://www.inkscape.org/) -->

<svg
   width="255.42703mm"
   height="111.54513mm"
   viewBox="0 0 255.42703 111.54513"
   version="1.1"
   id="svg1"
   xml:space="preserve"
   xmlns="http://www.w3.org/2000/svg"
   xmlns:svg="http://www.w3.org/2000/svg"><defs
     id="defs1" /><g
     id="layer1"
     transform="translate(997.43071,-120.26553)"><path
       id="path5"
       style="opacity:1;fill:#f9f9f9;fill-opacity:1;stroke:none;stroke-width:0.264583"
       d="m -912.79842,120.26553 -7.26674,6.46679 h -42.80462 c -0.17275,-1.01558 -1.05038,-1.78491 -2.11667,-1.78491 h -22.72574 c -1.19109,0 -2.14974,0.95865 -2.14974,2.14974 v 5.98827 c 0,1.19108 0.95865,2.14974 2.14974,2.14974 h 22.72574 c 1.06629,0 1.94392,-0.76932 2.11667,-1.78491 h 35.25573 l -8.52713,7.58869 h -17.24908 l -41.10756,29.58424 c -2.65486,2.37028 -3.77215,5.76729 -2.23604,8.42791 l 12.04009,12.53412 c 11.5192,-21.21116 38.30262,-22.42947 52.11568,-5.38572 h 11.0076 c 13.59516,-16.90825 36.83693,-14.97686 48.67558,0 h 11.00811 c 10.92618,-14.99911 34.82588,-16.93436 48.50402,0 h 11.17968 c 13.81121,-16.87037 35.46248,-14.61079 47.12787,-1.47278 l 13.07155,-26.14362 -8.77155,-17.54415 h -118.59328 v -20.77341 z m 134.85937,58.27499 a 26.635134,26.635134 0 0 0 -26.63507,26.63507 26.635134,26.635134 0 0 0 26.63507,26.63507 26.635134,26.635134 0 0 0 26.63506,-26.63507 26.635134,26.635134 0 0 0 -26.63506,-26.63507 z m 0,14.93914 a 11.695927,11.695927 0 0 1 11.69592,11.69593 11.695927,11.695927 0 0 1 -11.69592,11.69593 11.695927,11.695927 0 0 1 -11.69593,-11.69593 11.695927,11.695927 0 0 1 11.69593,-11.69593 z m -59.68363,-14.93914 a 26.635134,26.635134 0 0 0 -26.63507,26.63507 26.635134,26.635134 0 0 0 26.63507,26.63507 26.635134,26.635134 0 0 0 26.63506,-26.63507 26.635134,26.635134 0 0 0 -26.63506,-26.63507 z m 0,14.93914 a 11.695927,11.695927 0 0 1 11.69592,11.69593 11.695927,11.695927 0 0 1 -11.69592,11.69593 11.695927,11.695927 0 0 1 -11.69593,-11.69593 11.695927,11.695927 0 0 1 11.69593,-11.69593 z m -59.68363,-14.93914 a 26.635134,26.635134 0 0 0 -26.63507,26.63507 26.635134,26.635134 0 0 0 26.63507,26.63507 26.635134,26.635134 0 0 0 26.63506,-26.63507 26.635134,26.635134 0 0 0 -26.63506,-26.63507 z m 0,14.93914 a 11.695927,11.695927 0 0 1 11.69592,11.69593 11.695927,11.695927 0 0 1 -11.69592,11.69593 11.695927,11.695927 0 0 1 -11.69593,-11.69593 11.695927,11.695927 0 0 1 11.69593,-11.69593 z m -59.51164,-14.93914 a 26.635134,26.635134 0 0 0 -26.63507,26.63507 26.635134,26.635134 0 0 0 26.63507,26.63507 26.635134,26.635134 0 0 0 26.63506,-26.63507 26.635134,26.635134 0 0 0 -26.63506,-26.63507 z m 0,14.93914 a 11.695927,11.695927 0 0 1 11.69592,11.69593 11.695927,11.695927 0 0 1 -11.69592,11.69593 11.695927,11.695927 0 0 1 -11.69593,-11.69593 11.695927,11.695927 0 0 1 11.69593,-11.69593 z" /></g></svg>
