<svg xmlns="http://www.w3.org/2000/svg" xml:space="preserve" viewBox="0 0 1062.483 535.174"><path fill="#212121" d="m503.506 2.252-69.322 91.025-20.094 2.85-30.432 6.614-48.902 8.66-1.594 2.819 5.76 32.368-.016 24.928-2.592-.636-2.763-1.8-278.014-34.67-15.789.848 1.244 9.726-8.123 57.812-5.55 43.002-2.159 10.725 17.998 2.405-.668 25.267-3.048 9.696.227 10.14-2.585 22.723-9.278 22.628-2.128 5.413-1.774 16.445-4.449 20.13-1.3 26.11 1.347 11.475 13.146 4.504 4.18-3.318 21.975 1.38.302-5.77 7.795 1.962 8.579 7.351 19.03 2.665 22.55 18.279 9.455 6.11 2.828 8.103-4.143 6.828-2.476 7.494 31.687 19.496 6.834-.482 12.601 6.566 3.85 1.801 9.42-.87 14.561 11.697 6.87 5.86 9.52 4.391 7.737.99 18.529-3.974L262 510.024l17.31 2.658 12.954 8.29 7.03-4.411 10.274-10.086-4.191-4.412 23.42-30.696 2.926-.961 8.74.46 14.537-4.31 10.706-1.465 12.36 10.618 8.484 5.655 14.185 4.725 93.217 28.172 20.476 4.501 16.327 2.044 7.924-1.758 21.221-13.19 31.443-26.32 17.024-17.295 10.093-12.94 4.693-11.066 6.448-4.464 8.255-2.23 12.427-1.052 20.335.702 14.745 1.556 47.25 1.138 32.06-.906s6.666-24.065 8.822-36.343a111.55 111.55 0 0 0 1.562-14.226c.26-5.73-1.12-11.522-.327-17.203.335-2.408 2.129-6.977 2.129-6.977l2.202-5.663 4.727-1.04 9.34 1.262 21.016-3.228 16.369 2.641 6.318-.284 8.098 1.31 4.303-3.359 4.076-8.788 3.545-2.289 5.459-6.331 10.465-6.674 39.59-21.28 40.165-20.326 37.17-19.8 2.732-2.39 3.042-4.744 5.953-1.424 15.984-19.338-.426-14.545 14.725-1.795-.55-12.1 1.845-6.493 1.824-104.307-7.303 4.39-2.07-7.282-3.725-.319-1.47-3.504.199-22.242-2.59-2.182-13.899-2.495-8.837-.47-20.578 6.3-16.721 1.787-10.926-4.534-77.558-1.613-1.426 15.402-72.196.828-41.562 8.801s5.862 15.903 7.676 24.154c1.299 5.906 2.263 17.999 2.263 17.999l-1.238.887-12.734 3.197-10.471 4.481-11.016.784 1.764 15.281-19.334 2.817-19.182 6.506-2.34 3.716-2.354 1.03-12.618 2.292-16.867 1.179-5.032-21.928-4.437-28.715-26.03 4.057-66.48 14.316-27.767-42.111-9.522-42.75 24.174-24.198-38.488-31.681z"/><path fill="#131323" d="M763.679 265.667c-2.85.934-4.666 4.28-7.594 6.416-4.827 3.52-5.768 10.13-8.191 12.613-1.45 1.486-5.486 1.46-5.58 3.47-.106 2.234 5.828 2.436 4.31 19.573-1.716 19.37-11.746 14.907-13.832 21.481-.95 2.994-1.15 7.537.065 10.437 1.48 3.534 6.686 2.375 7.023 6.194.385 4.36-7.95 11.86-8.275 17.8-.513 9.356 4.292 15.505 4.59 25.036.183 5.845-1.953 13.284-2.563 21.351-1.305 17.254-2.088 35.221-2.088 35.221l31.166-.059s1.054-15.864 4.403-30.877c2.048-9.182 6.355-18.204 6.668-25.605.393-9.323-.439-19.081.807-28.329 1.177-8.737 7.413-16.063 7.992-24.86.497-7.567-5.974-10.784-4.598-24.457 1.709-16.978 10.483-14.043 10.823-28.092.184-7.615-7.237-7.367-9.242-10.226-2.008-2.863.843-5.632-1.957-7.735-2.499-1.876-5.17.026-6.509.546-4.446 1.73-4.775-.765-7.418.102zm1.63 68.56c.928 1.03 2.214 3.053 2.022 4.308-.613 4.034 2.871 9.38 1.473 11.529-2.06 3.169-9.478 8.492-10.588 9.274-3.207 2.265-1.526-7.766-1.451-11.693.058-2.899.272-5.919 1.414-8.583.784-1.836 1.857-3.833 3.613-4.78.251-.134 3.33-.265 3.517-.055zM791.15 170.75c-1.238.048-4.629-.66-5.962-.696-.999-.027-9.744.619-11.402 3.978-1.812 3.672 11.69 3.87 4.644 6.81-4.148 1.728-9.335-.238-11.143 2.686-4.155 6.72-7.583 15.924-10.245 23.429-2.963 8.352-10.402 22.137-7.098 27.458 2.725 4.39 10.535-1.221 11.91 2.683 1.935 5.492-7.202 5.838-10.577 8.61-1.394 1.145-5.88 4.911-5.394 7.932.419 2.603 2.6 5.182 4.376 5.247 5.075.185 5.441-9.207 9.476-10.426 8.074-2.438 17.814 5.455 26.23 6.012 2.796.185 5.584-.196 7.445-2.198.824-.887 2.253 2.925 2.58 1.403 2.616-12.166 1.226-28.234 3.404-40.067 1.771-9.627 6.427-14.001 6.96-27.05.065-1.607-.004-6.734-.605-8.23-1.47-3.664-1.968-1.272-4.73-3.49-1.84-1.476.48-4.812-2.184-4.897-.192-.006-6.396.756-7.685.806zm3.188-110.45-45.386 4.364c1.092 6.243-.75 6.018.627 11.647.914 3.735 3.395 7.155 4.66 11.041 1.31 4.017 1.723 8.429 3.052 12.58 1.605 5.014 4.292 9.669 4.89 13.64.958 6.363-.152 16.781 3.46 24.92 2.348 5.293 6.503 11.94 10.703 16.802 3.159 3.656 13.759.73 15.22 2.435 1.417 1.65-6.783 7.314-3.102 8.318 4.422 1.206 7.357 1.807 11.697-3.617 3.315-4.143 4.274 1.353 9.008-4.316 2.484-2.975.655-6.948.795-12.265.164-6.246 3.567-7.799 1.53-18.494-4.57-24-17.154-67.055-17.154-67.055z"/><g fill="none" stroke="#333" stroke-width="5"><path d="M77.455 362.255s12.342 14.32 20.78 17.755c7.884 3.21 29.722 3.12 42.51 8.96 13.235 6.044 20.529 20.083 31.175 25.548 6.688 3.432 21.182-4.588 21.182-4.588m326.321 98.906c-28.921 23.59-19.424 35.814-47.874 57.357M599.097 172.19s-17.853-4.724-27.003-5.612c-3.413-.331-6.877.48-10.287.117-5.245-.558-14.963-3.505-15.43-3.507-.462-.002-38.495 6.962-43.117 7.822m-21.372 21.81c-4.664.836-10.215 3.394-14.534 4.502-7.197 1.847-21.976 3.74-21.976 3.74"/><path d="M576.777 213.287s-9.943 2.972-10.528 2.856c-.584-.117-8.759 1.363-12.508-.468-6.635-3.24-12.026-9.913-14.261-16.95-1.54-4.845-1.464-10.92 1.286-15.197 2.32-3.61 7.847-3.66 11.222-6.312 3.771-2.964 9.819-10.52 9.819-10.52"/><path d="M540.766 183.528s-10.368 5.97-16.132 6.313c-4.18.249-5.665-2.491-9.848-2.667-1.689-.072-4.74 1.355-8.227 2.016"/><path d="M539.48 198.725s-4.34 5.082-7.248 6.546c-9.194 4.629-20.562 2.674-30.276 6.079-3.93 1.378-6.996 5.048-11.105 5.728-3.382.56-7.15.099-10.17-1.52-3.891-2.084-6.354-6.203-8.885-9.82-1.818-2.598-3.177-5.507-4.442-8.416-2.27-5.22-4.29-10.594-5.61-16.132-1.698-7.113-2.286-14.458-2.923-21.742-.663-7.576-1.595-15.22-.935-22.795.27-3.1.604-6.332 1.987-9.118 3.414-6.884 9.186-12.469 14.963-17.535 2.584-2.266 5.336-4.7 8.65-5.611 8.574-2.354 17.817.057 26.653 1.052 5.475.617 11.447.336 16.248 3.04 4.785 2.693 9.229 7.072 10.989 12.274 2.73 8.07-3.04 17.028-1.988 25.483.774 6.221 6.013 17.82 6.013 17.82"/><path d="M510.139 105.441s.07 18.286 2.454 27.003c1.366 4.993 3.387 10.02 6.664 14.028 2.836 3.47 7.241 5.284 10.754 8.066 3.88 3.072 11.39 9.52 11.39 9.52m-63.767 5.311c-7.119 1.332-11.413 2.006-17.077 2.995m93.184 43.311c-5.933 2.386-8.12 10.418-14.32 13.799-8.36 4.559-19.585 11.812-19.15 11.868"/><path d="M513.953 208.941s1.184 11.807 2.346 17.616c1.001 5.004 3.972 14.785 3.972 14.785m-5.485-54.168 18.314-21.615m426.85-58.157s-1.992-2.833-2.8-5.813c-1.14-4.195-1.353-5.827-1.25-14.19M139.686 264.097l5.366-46.282"/></g><path fill="#333" d="m853.701 127.173-3.667 122.367 66.63 1.559 1.84-38.378-28.157-.793.19-5.83-6.637-.205 1.507-55.11 7.196.247.743-23.33zm96.113-6.435-3.577 112.255 7.81 4.356 47.648-23.397 3.245-91.436zm-81.081-55.423-1.628 34.109 64.76 1.685 1.26-34.363zm-339.91 171.96-49.463 6.624 6.237 31.384 48.554-8.485zM627.64 164.3l-42.646 8.308-.754 16.898 1.511 7.136 14.02-3.12.703 4.483 3.642-.896 1.263 6.058 17.218-4.307 5.52 1.588 2.81-6.425-.434-18.027zm-72.407 120.754-14.594 8.064-6.02 1.142 4.297 27.525 72.44 6.612 2.673-44.442-40.302-2.943-.346 6.336-6.647-2.15zM416.195 192.11l-10.145 26.77 38.745 8.003 7.87-2.396-3.468-26.522zm-66.665-38.747-7.165-38.386 29.967.218 5.5 22.734zm-85.456 157.628-4.331 35.86c-.433 3.185 1.397 5.934 4.247 6.253l39.461 4.647c1.963.25 4.899-.912 5.174-3.303l4.269-37.439zm-7.141-86.922-10.673 58.11 114.693 15.379 2.91-19.761-42.729-6.707 5.943-36.057zM163.99 172.89l-4.311 34.413 19.678.132 4.47-33.89zm272.413 168.883-3.172 1.277-1.2 1.444-2.529 6.767-.315 11.147 49.099 2.508.244-22.373zm82.953-71.241-59.236 10.846 4.445 24.275 26.87-4.92 1.164 5.36 5.143 1.063.697 10.195 21.743 3.599-4.164-24.718 7.783-1.425zM187.434 400.379l-1.213 18.576-7.833 15.767 8.128 4.951 10.738-14.705 4.891-3.22 10.484-4.315 4.784-16.258-20.486-13.618zm308.053 67.377-1.862 13.899-14.763-2.294.598-4.057-5.42-.731-.897-7.714 1.496-1.73zm241.398-117.341 21.408.187.041-4.686-21.408-.187zm29.483-5.822 17.652-1.314-.37-4.383-17.637 1.485z"/><g fill="none" stroke="#333" stroke-width="5"><path d="M137.702 286.23s-5.113 14.902-9.33 21.466c-4.255 6.621-10.406 11.814-15.786 17.556-9.424 10.061-19.828 19.202-28.884 29.592-6.922 7.943-14.096 15.852-19.388 24.961-6.187 10.646-11.371 22.131-14.127 34.132-3.3 14.375-2.608 44.168-2.608 44.168M4.69 214.521c-.494 4.044-7.647 29.166 17.15 32.664 74.693 10.527 242.072 34.987 290.54 41.929 8.559 1.225 9.876-7.57 19.86-6.063"/><path d="M328.426 309.759s16.899-118.642 20.7-146.254c.62-3.803 1.49-10.095 1.055-15.179-3.97-21.699-9.141-49.517-9.141-49.517M34.992 249.469s6.62-55.259 10.824-82.321c.472-3.042 2.814-5.813 5.392-7.493 2.57-1.675 5.96-2.273 9.007-1.899 31.36 3.841 66.988 7.707 98.488 11.678 7.586.841 10.992 7.951 10.992 7.951m350.999 157.423c-5.034 16.674-5.923 54.881-14.613 126.021-.36 2.953-3.848 5.146-6.319 4.88a676.088 676.088 0 0 1-20.431-2.527c-2.569-.359-5.001-3.682-4.634-6.249.892-6.233 1.957-12.545 2.808-18.254.314-2.107 3.084-4 5.196-3.722 7.858 1.033 25.206 3.3 25.206 3.3m121.99-340.393s-1.507 19.384-.242 28.99c2.908 22.108 14.987 42.24 18.327 64.287.598 3.962 1.409 8.198.203 12.021-1.238 3.925-4.04 7.418-7.252 9.994-4.195 3.367-7.769 5.776-12.673 7.978-4.816 1.436-10.947.443-13.536 3.744-2.641 3.365-2.066 8.009-1.068 12.167 2.108 8.756 3.095 16.747 3.672 24.72.272 3.803-3.11 7.935-6.099 10.31-4.61 3.669-13.048 3.723-17.125 7.98-3.72 3.598-3.555 5.887-4.097 14.295m434.177-186.604-149.636-.8M265.061 302.043s3.011 9.872 2.921 15.19c-.036 2.131-.802 9.65-1.406 13.721m27.437-25.08s3.245 9.124 2.726 13.776c-1.163 10.435-2.665 22.112-3.61 30.057-.45 3.784 10.915 5.186 11.345 1.4.903-7.949 2.206-20.24 3.315-30.425.487-4.461 4.936-12.524 4.936-12.524"/><path d="M634.884 217.568c-4.968 2.306-10.445-.58-15.334-1.94-4.761-1.326-8.863-4.67-13.706-5.658-3.469-.708-7.139-.845-10.657-.084m-119.02 119.317s-.322 6.954-1.734 10.044c-1.333 2.916-6.099 7.44-6.099 7.44m179.654-155.505s-5.787-4.644-9.12-6.19c-3.484-1.618-11.098-3.104-11.098-3.104m258.708-54.28c.115-8.58.353-11 1.755-14.357 1.027-2.457 5.03-6.205 5.03-6.205m-.001 0s-2.339-2.939-2.904-4.877c-.335-1.149-.4-2.15-.304-4.787m69.896 10.02s-2.7 3.448-3.669 5.655c-.873 1.987-1.054 3.598-1.174 7.851M917.23 274.512c-2.88 1.347-5.447 1.64-7.882-.135-1.208-.88-2.187-2.149-2.883-3.47-1.222-2.323-1.636-4.9-1.924-7.508-.452-4.1-.147-8.892-.061-12.585"/></g><g fill="none" stroke="#333" stroke-width="8"><path d="M688.135 355.963s-443.367-55.787-656.069-83.491c-15.42-1.935-21.609-3.298-31.102-5.516"/><path d="M661.762 353.273s27.953-71.602 39.945-108.099c3.901-11.876 7.562-23.617 9.018-36.033 1.409-12.018 1.207-24.262-.352-36.261-1.649-12.716-8.037-37.618-8.037-37.618"/></g><path fill="none" stroke="#333" stroke-width="12" d="M1059.669 204.802S924.034 276.765 859.67 306.336c-10.737 4.754-19.58 6.54-31.298 7.296-11.778.758-26.455-.738-39.377-2.134-20.173-2.18-41.838-4.108-62.754-6.727-5.881-.306-8.648.799-13.51 4.125-5.273 3.604-8.48 9.661-11.687 15.184-5.636 9.71-10.097 20.227-12.995 31.074-9.27 34.67-16.465 137.359-16.465 137.359M1026.3 42.914l-7.81 239.271"/><g fill="none" stroke="#444"><path d="m44.109 257.983 4.277.184m2.417 1.28 68.474 9.683m7.608.037 45.776 6.263m6.514 1.764 137.422 18.363 7.137-3.215 15.655 2.402 6.21 5.226 20.327 1.82 3.14-1.772 15.02-101.166-3.29-7.471-7.843-4.918-8.261-.387"/><path d="m369.051 299.817 10.657 1.814.914 2.635 52.574 6.482.592-7.628 1.446.051.827-6.817-7.437-.981m7.358 15.709 36.904 5.322m3.512.352 20.645 2.988m10.377 1.587 2.88.3 3.799-.698 6.98 1.958 8.663 1.372m-410.937-43.589 1.371.25-5.518 20.68m1.741-32.998-2.088 11.25 3.174.578m31.967 65.238 36.535 4.56m-52.357-6.617-20.448-2.75 1.364-4.922 15.666-14.838-12.628-10.92m111.181 54.39 7.938 1.339 28.498-2.407 12.173-.21 19.899 2.181m3.899.402 4.14-.188m3.561-2.41 4.147-.085 12.153 1.415 8.572-.35m3.938-.841 8.559-8.004 1.702-3.398 9.022 3.788m5.967 2.847 5.194 2.308m-1.906 3.336-6.448 10.6-7.987 9.328m-12.751 19.594-2.492 12.711.238 16.051m.936 4.372 3.184 8.82 9.604 4.802m4.29 1.964 2.036 3.275 9.288 8.377M294.5 366.325l.822 5.458 15.13-.185 6.624 2.886 3.274 5.783 6.334-2.949 4.051 5.217m4.054 5.371 6.57 8.07 1.799-3.486 2.593-3.24m148.408 44.414.713-6.997 10.065 1.342m28.625-103.349 60.39 7.973 16.349.928 9.14-8.29 22.207-23.308m2.789-3.826 12.786-15.544m3.163-3.331 4.644-6.471 2.623-7.55 2.652-12.144m-6.224-42.881-1.312-5.806m-1.552-6.174-4.305-22.835m51.318 62.261 26.23 7.378 5.28.86m6.008-.982 14.41-6.837m-99.863 44.411 19.826 8.812m2.224.96 5.405 2.367 6.114-15.023 16.572 5.826m4.424 1.321 15.584 2.497-2.453 7.133m62.609-38.302 7.33-.628m3.747-.272 32.024-2.957M98.428 334.468l-5.017-4.622 3.63-3.495 14.452-9.84m-11.786 3.504-1.566-2.88 9.892-20.971 2.241.682m566.403-63.556 7.413-.599m2.583.059 6.26.736m156.132-121.641-2.997-.188-1.3 42.35m-.001 2.581-.41 21.063m-.019 3.093-.297 37.8-1.16 32.698m.423 4.631.337 8.004 5.054 6.43 25.563 13.226 4.11-.257 19.033-9.028m3.329-1.306 1.771-3.844 5.561-2.211 3.73 1.18 3.507-2.124 2.025-3.438 1.155-28.427m.136-4.558 3.656-109.86-2.04-4.017-28.617-1.84m-6.973-.339-28.738-1.415m9.362-6.936 1.448-23.444m76.609 48.799.115-6.847 1.2-6.064 4.675-3.081 2.78-.107m52.827 2.369 5.818 7.198M428.654 353.677l-.27 9.547 50.795 2.596.174-21.577m-16.852-2.797-26.325-.476-3.387 1.345-1.458 1.78-2.65 7.01M231.775 157.548l-2.514 16.51-4.613 2.218-7.107 4.311-6.244 5.116-4.777 6.778-3.733 7.553-10.896 69.36m-.387 2.997-.413 2.635-1.776 3.403m240.14 12.532 4.953-.96 3.306.052 8.728-1.86-.775-8.47 1.653-13.893-2.427-19.626 1.278-17.563-3.326-.725m-30.979-6.763-30.2-6.186m28.354-84.451.596-4.673.361-16.273-.663-11.692m-47.673 77.084 3.315-2.712 5.967-1.446 6.569-2.472 21.697-16.272 2.833-3.014 6.388-13.741.222-1.743m-42.656 52.183 1.934-5.503-4.728-5.889"/><path d="m104.232 339.905 4.762 4.606 4.373-3.865m464.71-121.523v10.695m-39.595 89.01-2.79-17.924m-.859-6.816 5.742-1.02 3.22-1.341m9.552-6.064 1.932-.59 11.485.107 6.654 2.146.43-6.547m-50.338-9.982 18.729-3.112m5.42-5.582-2.397-13.234m85.811-73.219-2.77-11.6m-25.129 3.971 5.746-1.15"/></g><g fill="#444"><g data-name="Garages"><path d="m673.496 184.645 2.331 17.707 6.18-.814-2.33-17.706zm20.629 30.821.208-17.81-6.172-.073-.21 17.81zM960.07 114.783l44.748 1.637-.226 6.171-44.747-1.638zm50.988 9.332-3.023 89.013-6.334-.215 3.023-89.013zm-61.642 6.541-3.31 102.321-6.076-.196 3.31-102.322zm-8.236 110.298 4.164-6.39 3.805 2.478-4.164 6.391z"/><path d="m949.962 235.182-3.092 7.05 4.169 1.829 3.092-7.051z"/><path d="m956.683 242.974 47.168-23.254-2.736-5.55-47.169 23.254zm.936-115.247-.71 30.68 7.596.175-.014.608 7.743.18.71-30.709-7.496-.173.014-.58zm23.63.665-.842 35.512 7.73.183-.009.366 7.65.181.837-35.326-7.579-.18.013-.551zm-25.169 43.01-1.557 48.84 7.54.24.136-4.218 7.934.253 1.41-44.223-7.664-.245.013-.397zm23.79.716-.927 35.83 15.284.395.913-35.304-7.558-.196.014-.525z"/></g><g data-name="Big Buildings"><circle cx="64.247" cy="201.076" r="10"/><circle cx="93.67" cy="205.432" r="10"/><path d="m72.75 197.807 13.594 1.872-1.34 9.726-13.594-1.872z"/><circle cx="59.815" cy="228.166" r="10"/><circle cx="89.237" cy="232.522" r="10"/><path d="m68.316 224.897 13.595 1.872-1.34 9.726-13.594-1.872zm53.864-14.025-4.591 33.184-2.705-.398-1.022 6.955 2.762.406-.469 3.392 18.451 2.555 6.028-43.539zm-47.208-46.089 23.574 2.508-1.691 15.887-23.573-2.508zm46.621 4.386 42.008 5.28-2.95 23.47-42.008-5.28zm85.249 40.104-.049.32-1.998-.314-2.633 16.701 2.06.327-4.722 30.718 31.022 4.77.869-5.654 7.144 1.115 6.559-41.979-7.246-1.132.015-.102zm73.311-22.071 53.478 7.977-5.538 37.127-53.478-7.977zm59.694 83.435 10.029-65.598 29.493 4.509-10.029 65.598zm-56.777 49.351-.248 2.02-4.277-.528-.617 5.012-5.06-.623-1.04 8.434-2.957-.366-1.033 8.385 18.176 2.239.191-1.557 14.545 1.756 2.488-20.612-14.494-1.75.207-1.685zm175.367 107.887-5.568 40.87 16.19 2.205 5.568-40.87zm64.399 60.591 5.68-40.934-16.132-2.238-3.453 24.892-12.43-1.729-2.225 16.042zM411.948 220.673l-10.13 47.832 12.689 2.688-4.85 22.9 18.468 3.911 7.588-35.825-18.14-3.842 2.247-10.604 18.021 3.817 5.147-24.303zm86.447-76.482 10.768 59.352-24.522 4.45-10.768-59.353zm101.111-5.932 4.766 23.475 15.782-3.204-4.765-23.475zm-5.598 65.481-18.324 3.813 2.41 11.58 11.781-2.453 2.137 10.27-49.619 10.325 2.436 11.705 22.156-4.609 4.896 23.53 35.96-7.483-7.333-35.236-2.55.53-2.14-10.276.598-.125zm70.648 6.407 7.831 38.883-27 5.437 1.42 7.048-20.374 4.103-6.22-30.882 20.247-4.078.063.312 15.474-3.116-3.094-15.36zm-63.86 89.163 25.227 1.893 1.449-19.301-25.228-1.894zm316.807-147.133-1.704 59.985-24.805-.704.168-5.926-6.894-.196 1.536-54.06zM464.565 305.653l59.236-10.846-4.445-24.275-59.236 10.846z"/></g><g data-name="Small Buildings"><path d="m382.852 115.15 1.992 8.52-8.483 1.984-1.992-8.52zM109.456 307.337l5.08-5.992 6.138 5.204-5.08 5.992z"/><path d="m104.728 322.457 11.007 11.853 11.622-10.79-11.007-11.854zm87.166 73.191 3.608-5.007 2.264 1.631-3.609 5.007zm278.702-34.687h6.552v2.79h-6.552zm19.116 11.102 6.065-.027.011 2.467-6.065.027zm26.655 51.617-1.074 8.166 6.076.8 1.075-8.166zm-3.787-111.22h6.16v2.488h-6.16zm-23.929 3.988 6.2.909.403-2.752-6.2-.909zm-148.847-186.91 2.438 12.19 12.609-2.52-2.438-12.192zm251.181 196.475 6.173.98-.442 2.785-6.173-.98zm82.465 15.012 8.01 2.054 1.535-5.987-8.01-2.054zm-5.72 72.59-.26 6.317-2.836-.117.26-6.317zm6.03-139.07-2.486 5.739 2.575 1.115 2.486-5.739zM169.235 344.94l6.214.668-.282 2.622-6.214-.667zM62.972 166.697l-1.02 7.928 4.069.523 1.019-7.928zm161.613 15.194-.953 7.888 4.055.49.953-7.888zM811.93 299.212l6.655.236-.217 6.108-6.654-.236zm31.432-7.127 6.654.378-.348 6.127-6.654-.377zm45.212-23.597 9.06-3.964 2.13 4.867-9.06 3.965zm-14.866-147.99 9.836-.166-.09-5.302-9.836.165zm9.277-26.48-.356 6.303 2.851.161.356-6.303zm56.474-14.624-.667 6.26 2.808.3.667-6.261zm4.112-6.299 3.223-5.297 2.402 1.46-3.224 5.298zm13.819 1.964 16.709 1.334.494-6.195-16.708-1.334zm-8.455 40.691-.475 6.278 2.799.212.475-6.279zM621.16 129.253l1.207 6.391 2.85-.557-1.249-6.383zm-92.932 143.781 6.261-.996-.407-2.56-6.26.996zm-201.874-23.626-.889 6.261 2.836.403.89-6.26zm2.614 36.198-1.277 8.5 5.748.864 1.278-8.5z"/><path d="m340.319 288.185-5.995-.835-.917 6.583 5.995.836zm44.359-164.475-8.123 1.898 2.002 8.564 8.123-1.9z"/></g></g><path fill="none" stroke="#000" stroke-width="2" d="m503.506 2.252-69.322 91.025-20.094 2.85-30.432 6.614-48.902 8.66-1.594 2.819 5.76 32.368-.016 24.928-2.592-.636-2.763-1.8-278.014-34.67-15.789.848 1.244 9.726-8.123 57.812-5.55 43.002-2.159 10.725 17.998 2.405-.668 25.267-3.048 9.696.227 10.14-2.585 22.723-9.278 22.628-2.128 5.413-1.774 16.445-4.449 20.13-1.3 26.11 1.347 11.475 13.146 4.504 4.18-3.318 21.975 1.38.302-5.77 7.795 1.962 8.579 7.351 19.03 2.665 22.55 18.279 9.455 6.11 2.828 8.103-4.143 6.828-2.476 7.494 31.687 19.496 6.834-.482 12.601 6.566 3.85 1.801 9.42-.87 14.561 11.697 6.87 5.86 9.52 4.391 7.737.99 18.529-3.974L262 510.024l17.31 2.658 12.954 8.29 7.03-4.411 10.274-10.086-4.191-4.412 23.42-30.696 2.926-.961 8.74.46 14.537-4.31 10.706-1.465 12.36 10.618 8.484 5.655 14.185 4.725 93.217 28.172 20.476 4.501 16.327 2.044 7.924-1.758 21.221-13.19 31.443-26.32 17.024-17.295 10.093-12.94 4.693-11.066 6.448-4.464 8.255-2.23 12.427-1.052 20.335.702 14.745 1.556 47.25 1.138 32.06-.906s6.666-24.065 8.822-36.343a111.55 111.55 0 0 0 1.562-14.226c.26-5.73-1.12-11.522-.327-17.203.335-2.408 2.129-6.977 2.129-6.977l2.202-5.663 4.727-1.04 9.34 1.262 21.016-3.228 16.369 2.641 6.318-.284 8.098 1.31 4.303-3.359 4.076-8.788 3.545-2.289 5.459-6.331 10.465-6.674 39.59-21.28 40.165-20.326 37.17-19.8 2.732-2.39 3.042-4.744 5.953-1.424 15.984-19.338-.426-14.545 14.725-1.795-.55-12.1 1.845-6.493 1.824-104.307-7.303 4.39-2.07-7.282-3.725-.319-1.47-3.504.199-22.242-2.59-2.182-13.899-2.495-8.837-.47-20.578 6.3-16.721 1.787-10.926-4.534-77.558-1.613-1.426 15.402-72.196.828-41.562 8.801s5.862 15.903 7.676 24.154c1.299 5.906 2.263 17.999 2.263 17.999l-1.238.887-12.734 3.197-10.471 4.481-11.016.784 1.764 15.281-19.334 2.817-19.182 6.506-2.34 3.716-2.354 1.03-12.618 2.292-16.867 1.179-5.032-21.928-4.437-28.715-26.03 4.057-66.48 14.316-27.767-42.111-9.522-42.75 24.174-24.198-38.488-31.681z"/><g fill="#262626"><path d="M35.727 305.808c1.311-1.29 3.253-2.204 5.09-2.128 1.876.077 4.074.958 4.999 2.591.99 1.748-1.747 4.553-.37 6.016.718.765 2.141.3 3.146 0 .919-.273 1.467-1.76 2.407-1.573.915.183 1.456 1.389 1.573 2.314.22 1.723-1.46 3.194-1.758 4.905-.085.487.202 1.031 0 1.481-.305.678-.959 1.253-1.666 1.481-.856.276-1.908-.732-2.684-.277-1.074.628-.632 2.515-1.481 3.424-.735.787-2.122.707-2.87 1.481-1.352 1.4-1.396 3.673-2.499 5.276-1.088 1.582-3.503 2.305-3.98 4.165-.356 1.392 1.57 2.803 1.111 4.165-.56 1.667-2.49 3.776-4.165 3.24-2.361-.756-.14-5.646-2.129-7.127-.321-.24-.896.258-1.203 0-1.367-1.149-1.026-3.494-.926-5.276.031-.546-.057-1.407.463-1.574 1.716-.55 2.5 3.728 4.258 3.332.942-.212.702-1.83 1.296-2.591.725-.932 2.658-1.133 2.684-2.314.016-.72-1.322-.806-1.574-1.481-.422-1.133-.26-2.577.37-3.61.442-.723 2.255-.55 2.13-1.388-.281-1.874-4.451.029-5.461-1.574-.801-1.27-.105-3.201.74-4.442.81-1.19 3.709-.782 3.702-2.222-.005-1.217-2.772-.693-3.147-1.85-.498-1.539.792-3.31 1.944-4.444zm2.499 48.223c-.578-1.41 1.695-2.543 2.684-3.702 1.218-1.428 2.824-2.503 3.98-3.98 1.178-1.504 1.196-4.177 2.962-4.906.353-.145.733.332 1.11.278.425-.061.683-.655 1.111-.648.985.017 2.106.671 2.5 1.573.2.461-.024 1.048-.278 1.481-1.2 2.04-4.37 2.436-5.461 4.536-.528 1.016.35 2.466-.278 3.424-.537.82-1.68 1.03-2.591 1.389-1.129.443-2.306.869-3.518.925-.75.035-1.936.324-2.22-.37zm11.477.185c.175-1.846 2.076-3.582 3.888-3.98 1.097-.241 2.08 1.554 3.147 1.203 1.357-.446 1.333-2.57 2.313-3.609.576-.611 1.2-1.419 2.037-1.481 1.596-.119 4.042.635 4.257 2.221.341 2.509-5.391 2.656-5.553 5.183-.09 1.4 2.386 1.87 2.684 3.24.354 1.623-.165 3.595-1.296 4.813-.89.958-2.406 1.126-3.702 1.296-1.197.156-2.83.644-3.61-.278-.44-.521.352-1.376.185-2.036-.642-2.548-4.598-3.957-4.35-6.572zm-23.602 0c.887-.196 2.198-.304 2.684.463 1.423 2.244-2.126 5.025-2.129 7.682-.001 2.208 2.444 4.287 1.759 6.386-.476 1.462-2.08 3.012-3.61 2.87-1.22-.113-1.338-2.178-2.406-2.777-.491-.275-1.204.043-1.666-.278-1.726-1.197-2.729-3.402-3.147-5.46-.303-1.493-.787-3.815.555-4.536 1.52-.816 3.084 3.083 4.628 2.314 1.517-.755.005-3.575.926-4.998a3.99 3.99 0 0 1 2.406-1.666zm-5.646 21.936c1.055-.534 2.541.14 3.425.926.993.883 1.549 2.375 1.48 3.702-.071 1.392-2.21 2.334-1.943 3.702.248 1.268 2.729 1.229 2.962 2.499.344 1.875-2.918 3.098-2.777 4.998.038.505.855.703.926 1.204.13.919-.474 1.839-1.018 2.591-.964 1.331-2.153 3.101-3.795 3.147-1.764.049-3.746-1.458-4.258-3.147-.238-.784 1.15-1.558.833-2.314-.63-1.502-3.814-.533-4.443-2.036-.278-.666.236-1.52.74-2.036 1.482-1.517 5.335-.278 5.924-2.314.203-.7-1.362-1.034-1.295-1.759.061-.674 1.487-.712 1.48-1.388-.004-.415-.829-.429-.925-.833-.577-2.413.471-5.821 2.684-6.942zm-3.61 43.594c.686-.456 1.662-.906 2.407-.555 2.372 1.117 1.829 5.029 3.517 7.034.469.557 1.063 1.082 1.759 1.296 1.534.472 3.284-.677 4.813-.185.67.216 1.018 1.022 1.666 1.296 1.033.436 2.263.802 3.332.463.645-.205.804-1.37 1.48-1.389 1.248-.034 2.7 1.17 2.87 2.407.097.704-1.187 1.048-1.203 1.758-.018.762.972 1.218 1.203 1.944.15.471.343 1.054.092 1.481-.432.738-1.621.608-2.313 1.111-1.555 1.128-2.06 4.143-3.98 4.165-1.615.018-2.974-1.875-3.425-3.425-.08-.273.303-.574.185-.833-.19-.414-.979-.251-1.203-.648-.335-.591.48-1.478.092-2.036-1.553-2.236-5.575-4.103-7.774-2.499-.723.527.368 1.869 0 2.684-.576 1.275-1.784 2.463-3.147 2.777-1.685.387-4.48.261-4.998-1.389-.84-2.676 6.51-3.917 5.368-6.479-.314-.705-1.7.375-2.314-.092-1.289-.981-1.733-3.028-1.481-4.628.272-1.725 1.6-3.289 3.054-4.258zm45.353 5.739c.64-.702 1.827-.61 2.777-.648 2.276-.091 5.104-.549 6.757 1.018.777.737-.202 2.495.648 3.147.833.64 2.125-.43 3.147-.185 2.017.484 4.65 1.201 5.368 3.147.294.796-.993 1.573-.833 2.406.222 1.161 2.278 1.504 2.314 2.685.054 1.782-2.317 2.731-3.24 4.257-.264.437-.194 1.153-.648 1.389-.472.245-1.11-.542-1.573-.278-.458.261-.052 1.323-.555 1.481-.931.291-1.449-1.482-2.407-1.666-1.087-.21-2.15.94-3.24.74-1.64-.301-2.674-3.527-4.164-2.776-1.104.555.693 2.833-.186 3.702-1.141 1.129-3.35.848-4.812.185-1.519-.689-2.732-2.273-3.147-3.887-.523-2.034-.237-4.591 1.11-6.202 1.14-1.362 4.454-.16 4.998-1.851.49-1.523-2.322-2.421-2.684-3.98-.204-.88-.238-2.017.37-2.684zm23.695 16.475c-.22-1.446.953-2.904 2.036-3.887.79-.716 1.898-1.265 2.962-1.203 1.475.085 2.829 1.098 3.887 2.128 1.843 1.794 4.46 4.157 3.888 6.664-.307 1.344-2.057 2.15-3.425 2.314-.882.106-1.835-.335-2.499-.925-1.063-.944-.565-3.451-1.944-3.795-.838-.21-1.267 1.558-2.128 1.481-1.304-.116-2.58-1.483-2.777-2.777zm34.228-2.988c-.109-.971.971-1.927 1.9-2.235.707-.234 1.529.137 2.178.503.815.459 1.134 1.566 1.956 2.012 1.618.876 4.371-.452 5.419 1.061.388.559.075 1.469-.335 2.011-.683.904-1.962 1.678-3.073 1.453-.685-.139-.719-1.394-1.397-1.564-.422-.107-.793.448-1.229.447-.377-.002-.855-.076-1.061-.391-.163-.251.175-.621.056-.894-.366-.837-1.243-1.488-2.123-1.732-.381-.106-.791.265-1.174.167-.451-.115-1.065-.375-1.117-.838zm9.219 5.811c.439-.636 1.526-.924 2.234-.615 1.038.454.468 2.734 1.565 3.017.975.251 1.507-1.643 2.514-1.676.559-.018 1.153.366 1.452.838.361.568.289 1.349.168 2.011-.218 1.197-1.437 2.087-1.564 3.297-.161 1.523 1.749 3.101 1.061 4.469-.974 1.938-3.848 2.979-5.978 2.57-1.397-.268-2.665-1.639-3.017-3.017-.197-.77.239-1.622.671-2.29.372-.577 1.306-.705 1.564-1.341.913-2.254-2.054-5.264-.67-7.263zm-9.387 16.202c1.206-1.291 2.927-2.467 4.693-2.458 2.008.01 4.779.912 5.308 2.849.189.693-1.324 1.156-1.117 1.844.338 1.125 2.47.576 3.184 1.508 1.141 1.487 1.949 3.912 1.006 5.531-1.023 1.756-3.974 2.99-5.755 2.012-1.29-.709-.994-2.83-1.005-4.302-.007-.877 1.31-2.119.558-2.57-1.359-.817-2.277 2.247-3.631 3.073-.499.304-1.038.72-1.62.67-1.185-.101-2.399-.885-3.017-1.9-.448-.734-.364-1.721-.224-2.57.219-1.324.704-2.706 1.62-3.687zm-4.302 22.963c.676-1.793 3.23-2.711 5.14-2.57 2.041.15 3.836 1.857 5.029 3.519.927 1.293 1.844 3.072 1.341 4.582-.935 2.802-4.25 6.098-7.096 5.308-3.759-1.044-5.789-7.189-4.414-10.839zm21.846-7.655c-.009-.076.029-.151.055-.223.345-.92.606-1.973 1.341-2.626.965-.857 2.37-1.611 3.632-1.341 1.429.307 3.122 1.611 3.129 3.073.002.421-.849.475-.894.894-.113 1.032 1.817 1.597 1.676 2.626-.129.941-1.628 1.089-2.123 1.899-.191.313-.043.783-.28 1.062-.501.591-1.363 1.107-2.123.95-.297-.062-.324-.583-.614-.671-.294-.088-.602.318-.894.224-1.019-.33-1.892-1.402-2.067-2.458-.059-.355.409-.647.391-1.006-.046-.898-1.127-1.509-1.229-2.403zm5.251 19.667c.666-.3 1.341.653 2.068.726.542.055 1.126.009 1.62-.223.548-.258.742-1.134 1.341-1.23 1.876-.3 4.145.763 5.196 2.347.412.621-.509 1.749.055 2.235.228.196.635-.264.894-.112 1.11.651 1.414 2.29 1.453 3.576.049 1.63-.174 3.784-1.564 4.637-1.974 1.21-5.299.692-6.872-1.006-.914-.986.477-2.912-.28-4.022-1.173-1.721-4.89-.74-5.643-2.682-.552-1.425.338-3.619 1.732-4.246zm18.382 4.693c.349-.506.901-.966 1.508-1.062.867-.136 1.637.761 2.514.783.673.016 1.317-.715 1.956-.503 1.433.474 2.058 2.234 2.849 3.52.738 1.199 1.936 2.461 1.732 3.855-.156 1.071-1.577 1.523-2.123 2.458-.389.666-.334 1.551-.782 2.179-.693.97-1.601 2.22-2.794 2.235-.584.007-1.173-.521-1.396-1.062-.259-.626.497-1.37.279-2.011-.547-1.609-3.152-1.946-3.632-3.576-.264-.897.757-1.813.615-2.738-.124-.808-1.118-1.313-1.229-2.123-.092-.666.12-1.401.503-1.955zm15.587 10.168c.043-1.632 2.051-2.694 3.52-3.408.744-.361 1.636-.425 2.459-.335 1.44.158 2.889.68 4.078 1.508.969.675 1.991 1.552 2.303 2.69.295 1.073-.975 2.252-.571 3.289.111.284.606.277.726.558.479 1.12.07 2.505-.391 3.632-.511 1.252-2.532 1.832-2.514 3.184.012.873 1.394 1.186 1.676 2.012.338.987.104 2.107-.112 3.128-.227 1.08-.633 2.145-1.229 3.073-.554.865-1.17 1.85-2.123 2.235-.829.336-2.07-.764-2.682-.112-.602.643.784 1.905.28 2.626-.44.63-1.616.104-2.235.559-2.161 1.59-1.509 6.791-4.19 6.872-1.043.031-1.074-1.809-1.788-2.57-.879-.938-2.831-1.13-3.017-2.402-.151-1.033 1.653-1.536 1.788-2.57.084-.649-.707-1.191-.671-1.844.09-1.638 1.055-3.219 2.179-4.414.618-.656 1.46-1.18 2.347-1.341.575-.104 1.206.535 1.732.28 1.035-.503 1.006-2.083 1.676-3.017.953-1.329 3.533-2.014 3.296-3.632-.183-1.248-2.819-.766-3.24-1.955-.384-1.083 1.402-2.115 1.173-3.241-.437-2.143-4.527-2.618-4.47-4.805zm-10-32.74c-.153-.078-.237-.25-.336-.391-.259-.368-.643-.723-.67-1.173-.046-.767.297-1.64.894-2.123.383-.311.98-.421 1.453-.279.921.275 1.963 1.055 2.067 2.011.092.842-.635 1.752-1.397 2.123-.605.294-1.412.139-2.011-.168zm65.915 51.688c-.41-1.079-.493-2.474.105-3.462.593-.977 2.485-.653 2.99-1.678.593-1.204-1.233-2.814-.577-3.985.734-1.312 2.648-1.62 4.143-1.783 1.025-.113 2.3-.142 3.041.576.347.337.028 1.027.315 1.416.334.454.95 1.06 1.468.84 1.127-.481-.011-2.738.892-3.567.978-.897 3.145.44 3.933-.629 1.185-1.605-1.875-4.221-.84-5.926 1.069-1.757 4.4-.56 5.822-2.045.834-.87.987-2.257 1.049-3.461.061-1.192-1.34-2.519-.682-3.514.69-1.044 2.636-.083 3.67-.786.626-.426.57-1.577 1.26-1.888 2.522-1.142 5.719-.06 8.233 1.1 1.259.582 2.564 1.5 3.094 2.78.495 1.197-1.08 2.922-.21 3.881 1.376 1.516 4.25-.536 6.136.262.421.179.588.737.996.944 1.22.619 2.808 1.332 4.038.734.303-.146.156-.777.472-.891 1.8-.647 4.11.703 5.297 2.202 1.483 1.876 2.967 5.522 1.154 7.08-.474.407-1.23-.865-1.783-.577-1.217.634.052 3.389-1.206 3.933-3.093 1.338-6.041-5.927-9.073-4.457-2.027.983.24 5.08-1.416 6.608-.79.729-2.192.796-3.199.42-1.705-.639-2.774-2.479-3.618-4.091-.41-.782-.598-1.689-.63-2.57-.03-.833.958-1.828.42-2.465-1.105-1.309-3.994-1.274-5.14 0-.552.615.585 1.704.263 2.465-.718 1.697-2.61 2.808-4.353 3.409-.909.313-2.217-.693-2.884 0-.656.68.191 1.89.105 2.832-.286 3.104.593 7.465-2.046 9.124-1.245.784-3.027-.258-4.3-.996-.556-.323-.67-1.464-1.31-1.416-1.92.143-1.372 4.361-3.252 4.772-1.456.318-2.339-2.284-3.828-2.307-.822-.013-1.33 1.252-2.15 1.206-1.226-.069-1.815-1.794-2.99-2.15-.485-.147-1.051.245-1.52.052-.847-.347-1.563-1.137-1.889-1.992zm56.586-3.933c-.02-2.048 1.633-3.925 3.198-5.244.978-.825 2.289-1.483 3.567-1.416.866.045 1.691.594 2.307 1.206.449.446.339 1.368.891 1.678 1.009.565 2.401-.669 3.462-.21 1.708.741 3.006 2.525 3.566 4.3.453 1.439.298 3.157-.367 4.51-.23.467-.688.82-1.154 1.049-.621.306-1.423.063-2.045.367-.612.299-.899 1.087-1.521 1.364-1.943.865-4.592 1.886-6.346.682-.447-.308-.025-1.2-.419-1.574-.246-.233-.765.039-.997-.209-.444-.478.034-1.359-.262-1.941-.56-1.102-2.116-1.467-2.674-2.569-.239-.472.228-1.276-.21-1.574-.179-.121-.429.238-.629.158-.212-.085-.365-.349-.367-.577zm8.6-19.771c-.423-.579-.116-1.687.472-2.098.549-.383 1.64-.307 1.993.263.37.596-.093 1.61-.682 1.992-.5.326-1.431.325-1.783-.157zm3.042 3.304c.777-1.83 5.956-1.972 6.255-3.938.357-2.347-5.93-1.816-5.941-4.191-.011-2.474 2.561-5.404 5.035-5.453.395-.008.45.765.839.839 1.423.27 2.691-2.381 3.985-1.731.546.274.024 1.318.42 1.783.711.836 2.126.654 3.042 1.259.897.592 1.728 1.348 2.307 2.255.509.797.873 1.731.944 2.674a4.776 4.776 0 0 1-.472 2.465c-.662 1.315-1.661 2.616-2.989 3.251-1.201.575-3.303-.881-3.986.263-.345.577.948 1.171.839 1.835-.256 1.562-1.741 2.986-3.251 3.461-.324.102-.662-.269-.997-.21-.549.099-.86.941-1.415.892-1.886-.168-3.22-2.206-4.196-3.828-.288-.48-.638-1.111-.419-1.626zm-1.207 3.618c.273-.435.748-.947 1.259-.891.492.054.844.63.996 1.101.201.619.288 1.521-.209 1.941-.442.372-1.258.227-1.731-.105-.326-.23-.424-.705-.472-1.102-.038-.316-.012-.673.157-.944zm36.815-42.163c.147-.489.446-1.09.944-1.206.548-.128.958.717 1.521.734.415.013.781-.657 1.153-.472.551.274.535 1.172.472 1.783-.088.856-.63 1.626-1.153 2.308-.37.481-.757 1.198-1.364 1.206-.571.007-1.049-.594-1.311-1.101-.499-.967-.575-2.211-.262-3.252zm-42.531-4.353c.104.45.798.56 1.259.577 2.106.078 5.021-.299 5.926-2.202.396-.834-.423-1.827-.892-2.622-.264-.448-.577-.935-1.049-1.154-.444-.206-1.015-.238-1.468-.052-.847.346-1.716 1.094-1.888 1.992-.053.278.358.508.315.787-.178 1.141-2.462 1.549-2.203 2.674zm12.796-8.652c-.395-.032-.701.504-.786.891-.107.481.14 1.011.419 1.416.212.308.539.808.892.682.506-.182.456-1.042.367-1.574-.093-.55-.336-1.371-.892-1.415zm8.706-1.312c-.413.285-.796.814-.735 1.312.053.429.485.795.892.943.43.157 1.024.15 1.363-.157.425-.384.578-1.145.367-1.678-.124-.316-.508-.501-.839-.577-.344-.079-.758-.043-1.048.157zm-34.717-1.573c.013-.086.091-.153.157-.21.857-.73 1.875-1.731 2.989-1.573.649.092 1.25.73 1.416 1.364.047.176-.004.425-.157.524-.34.221-.92-.444-1.206-.157-.56.562.556 1.604.315 2.36-.11.341-.384.709-.735.786-.681.151-1.456-.284-1.94-.786-.568-.589-.959-1.498-.839-2.308zm15.628-15.47c.313-.335.852-.433 1.311-.42.486.014.878.489 1.363.525.322.024.629-.279.944-.21 1.352.297 2.69 1.276 3.304 2.517.217.439-.167 1.009 0 1.469.242.664 1.359.918 1.363 1.625.004.497-.472.998-.944 1.154-.41.136-.841-.43-1.258-.315-.643.178-.749 1.436-1.416 1.416-.817-.024-.955-1.368-1.626-1.835-.631-.44-1.55-.357-2.15-.839-.736-.593-1.412-1.429-1.573-2.36-.16-.923.041-2.044.682-2.727zm9.439-12.796c.352-.448 1.153-.533 1.678-.315.488.203.892.783.892 1.311 0 .466-.363.963-.787 1.154-.514.232-1.294.203-1.678-.21-.442-.473-.505-1.431-.105-1.94zm14.002 7.185c-.461.093-.46.902-.367 1.363.079.391.351.834.734.944.197.057.442-.057.577-.21.155-.174.208-.454.157-.682-.128-.583-.515-1.534-1.101-1.415zm34.35 29.996c.342-.56 1.131-.758 1.783-.839 1.272-.158 3.063-.332 3.776.734.535.802-.736 1.882-.577 2.832.056.34.55.548.524.892-.043.582-.534 1.222-1.101 1.363-1.513.377-3.42-.549-4.3-1.835-.593-.866-.653-2.251-.105-3.147zm-3.094 22.131c-.128-.277.006-.664.209-.892.309-.346.865-.599 1.311-.472.515.147.996.724.997 1.259 0 .423-.373.907-.787.996-.634.138-1.459-.302-1.73-.891zm11.38 7.027c-.217-.383-.2-1.053.157-1.311.216-.157.519.159.786.157.34-.001.717-.402.997-.209.277.19.215.665.157.996-.069.393-.198.922-.577 1.049-.526.176-1.247-.198-1.52-.682zm26.904-25.27c.749-.148 1.279.932 2.032 1.058.5.084 1.003-.294 1.504-.222.263.037.601.098.724.334.275.525.156 1.381-.306 1.754-.348.28-1.127-.45-1.337-.056-.103.194.422.313.39.529-.08.538-.766.932-1.309.975-.898.071-1.918-.489-2.394-1.253-.393-.631-.302-1.527-.056-2.228.129-.366.371-.815.752-.891zm23.979-30.893c.168-.182.448-.27.696-.265.698.015 1.226.781 1.923.829.617.042 1.191-.655 1.789-.497.288.075.541.346.63.629.176.556.152 1.353-.298 1.724-.384.316-1.222-.451-1.492-.033-.153.237.449.494.365.762-.167.534-.918.686-1.459.829-.544.144-1.182.244-1.69 0-.574-.276-1.07-.867-1.193-1.492-.167-.847.143-1.852.729-2.486zm20.286-3.182c.322-.634 1.057-1.011 1.723-1.259.51-.19 1.086-.205 1.625-.133.512.069.943.488 1.458.53.359.03.739-.359 1.061-.199.31.154.399.589.464.929.126.653-.013 1.341-.166 1.988-.109.464-.347.887-.53 1.326-.171.411-.232.897-.531 1.227-.61.674-1.479 1.251-2.386 1.326-.69.057-1.392-.295-1.956-.696a3.998 3.998 0 0 1-1.326-1.658c-.166-.389-.259-.846-.165-1.259.098-.437.602-.698.729-1.127.094-.318-.15-.699 0-.995zm23.308-38.444c.232-.753 1.316-.938 2.084-1.112.331-.075.754.26 1.019.046.219-.177.271-.585.139-.833-.16-.299-.763-.121-.927-.417-.219-.395-.121-1.011.186-1.343.439-.476 1.339-.744 1.898-.417.459.269.111 1.13.463 1.528.202.228.681.108.834.371.242.415-.266.972-.139 1.436.076.277.525.408.509.694-.027.502-.558.909-1.018 1.112-.283.124-.651-.14-.927 0-.443.225-.399 1.076-.879 1.204-.949.251-1.972-.531-2.687-1.204-.291-.275-.674-.683-.555-1.065zm7.826 2.408c.123-.33.486-.594.834-.649.535-.084 1.208.118 1.528.556.228.312.236.822.046 1.158-.173.307-.586.415-.926.509-.372.104-.854.285-1.158.047-.433-.341-.516-1.105-.324-1.621zm1.482-8.614c-.766-.775-.991-2.316-.417-3.242.25-.402.874-.521 1.343-.463.476.059.926.397 1.205.787.435.609.685 1.439.555 2.177-.071.405-.319.852-.694 1.019-.613.271-1.52.198-1.992-.278zm23.573-32.881c.837.066 1.889-.655 2.037-1.482.186-1.041-.895-2.03-1.76-2.64-.468-.329-1.178-.714-1.667-.416-.745.453-.84 1.708-.602 2.547.257.903 1.056 1.918 1.992 1.991zm4.492 2.825c-.138-.423.094-1.002.463-1.25.41-.276 1.091-.256 1.482.046.216.167.279.518.231.787-.09.511-.415 1.162-.926 1.251-.493.086-1.096-.357-1.25-.834zm-85.556 5.786c-.291-.327-.526-.83-.403-1.251.141-.486.663-.957 1.17-.968.489-.01.712.713 1.17.888.466.178 1.195-.28 1.493.121.229.309-.029.809-.242 1.13-.3.45-.793.879-1.332.927-.677.062-1.404-.339-1.856-.847zm-108.438 19.571c-.244-.681-.401-1.519-.082-2.168.259-.527.857-.909 1.432-1.023.769-.153 1.649.082 2.291.532.614.429 1.346 1.142 1.227 1.882-.069.431-.914.395-1.023.818-.087.343.531.649.41.982-.153.418-.742.6-1.187.613-.506.016-.887-.561-1.391-.613-.263-.028-.529.256-.777.163-.465-.173-.733-.719-.9-1.186zm26.019-48.643c.151-.524.454-1.171.982-1.309.62-.162 1.291.339 1.759.778.494.462 1.098 1.141.941 1.8-.233.979-1.461 1.919-2.455 1.759-.616-.099-.887-.928-1.104-1.514-.177-.474-.264-1.027-.123-1.514zm-.859 7.61c-.14-.414-.257-.957 0-1.309.211-.289.665-.349 1.023-.328.554.034 1.219.225 1.513.696.318.509.389 1.38-.041 1.8-.438.429-1.291.272-1.841 0-.322-.16-.539-.518-.654-.859zm1.35 3.15a1.045 1.045 0 0 1-.082-1.023c.146-.283.506-.432.818-.491.395-.074.872-.045 1.187.205.301.239.552.692.45 1.063-.117.424-.628.724-1.064.778-.467.057-1.031-.152-1.309-.532zm3.395 2.045c-.236-.428-.573-1.008-.327-1.431.287-.493 1.125-.742 1.637-.491.852.418 1.588 1.896 1.022 2.659-.341.461-1.196.116-1.718-.123-.263-.12-.474-.36-.614-.614zm-81.803 39.784c-.268-.579-.032-1.397.392-1.873.611-.686 1.745-1.169 2.614-.871.445.153.34 1.018.784 1.176.372.133.741-.406 1.132-.349 1.211.179 2.763.858 3.049 2.048.14.581-.819.972-.871 1.568-.03.352.543.706.349 1.002-.216.329-.79.013-1.176.087-.718.137-1.406.905-2.091.653-.662-.242-.618-1.304-1.133-1.786-.845-.789-2.563-.605-3.049-1.655zm-14.68 13.025c-.011-.059.027-.117.043-.174.183-.645.014-1.609.61-1.917.637-.329 1.332.617 2.048.653.281.015.554-.242.827-.174.44.11 1.044.418 1.046.871.001.248-.578.233-.567.48.017.354.768.27.872.609.118.387-.039 1.054-.436 1.133-.373.074-.405-.801-.784-.828-.443-.031-1.004.385-1.046.828-.041.441 1.043.594.872 1.002-.186.443-1.052.373-1.438.087-.252-.187.057-.764-.218-.915-.27-.147-.6.451-.871.305-.263-.142-.095-.598-.218-.871-.179-.401-.663-.657-.74-1.089zm1.481 18.557c-.316-1.233.842-2.813 2.047-3.224.322-.109.637.458.959.349.637-.216.469-1.436 1.089-1.699.34-.145.734.325 1.089.218.176-.054.208-.37.392-.392.388-.047.926.226 1.002.61.262 1.324-1.089 2.929-2.396 3.267-.202.052-.366-.316-.567-.262-.614.167-.558 1.218-1.089 1.569-.358.237-.838.325-1.263.261-.475-.072-1.144-.231-1.263-.697zm-2.44 12.11c.426.152.808.532.959.958.092.262-.194.572-.087.828.336.811 2.001.779 2.047 1.655.035.656-.847 1.031-1.394 1.394-.993.66-2.119 1.388-3.311 1.351-.467-.015-.978-.24-1.263-.61-.28-.364-.264-.892-.261-1.351.005-.712.1-1.462.435-2.091.45-.842 1.143-1.633 2.004-2.047.263-.126.597-.185.871-.087z"/><path d="M227.301 435.654c1.654.055 3.553 1.703 3.659 3.354.086 1.326-1.244 2.958-2.57 3.049-.584.04-.759-.966-1.307-1.176-.393-.151-.85.085-1.263 0-.65-.134-1.511-.202-1.829-.784-.127-.233-.023-.568.13-.784.422-.593 1.484-.461 1.917-1.046.388-.524.052-1.36.392-1.916.194-.318.5-.71.871-.697zm-7.449 7.405c1.233-.816 2.096-3.596.828-4.356-.496-.297-.772 1.106-1.35 1.089-.648-.019-.798-1.208-1.438-1.307-.584-.09-1.139.385-1.612.741-.551.414-1.355.878-1.35 1.568.006.853 1.707 1.063 1.699 1.916-.007.751-1.443.91-1.525 1.656-.056.517.289 1.191.784 1.35 1.244.399 3.126-.384 3.572-1.612.16-.439-.899-.896-.61-1.263.212-.268.717.406 1.002.218zm-8.625 7.449c1.577.515 3.837-.304 4.661-1.743.337-.588.002-1.423-.348-2.003-.379-.63-1.014-1.445-1.743-1.351-.708.091-.81 1.185-1.306 1.699-.681.705-2.12.904-2.266 1.873-.09.602.424 1.336 1.002 1.525zm6.055 6.403c-.752-.297-.786-1.46-.871-2.265a3.813 3.813 0 0 1 .305-1.917c.507-1.141 1.13-2.658 2.352-2.918.718-.153 1.518.417 1.96 1.002.447.59.044 1.55.436 2.178.368.589 1.651.569 1.655 1.263.009 1.365-1.866 2.379-3.223 2.527-.433.047-.741-.567-1.176-.567-.533.002-.942.893-1.438.697zm-46.986-36.287c-.445-.48-.458-1.452-.048-1.961.58-.72 1.809-.657 2.725-.526.55.08.928.722 1.482.765 1.558.121 3.023-2.126 4.446-1.482.599.271 1.019 1.211.765 1.817-.529 1.267-2.468 1.741-3.825 1.53-.346-.054-.495-.819-.812-.669-.303.142.248.779 0 1.004-1.177 1.063-3.656.685-4.733-.478zm4.637-9.419c-.562.038-.987-.566-1.53-.717-.447-.124-1.004.121-1.386-.143-.381-.264-.477-.803-.622-1.243-.116-.354-.264-.735-.191-1.1.081-.408.28-.907.669-1.052.468-.174 1.076.083 1.435.43.361.351.221 1.001.478 1.435.454.766 1.928 1.076 1.816 1.96-.033.263-.404.413-.669.43zM143.427 400.4c-.016-.539.398-1.165.908-1.338.716-.243 1.419.902 2.152.717.721-.182.786-1.614 1.53-1.626.202-.003.367.238.43.431.13.398-.229.825-.191 1.243.043.487.762.988.478 1.386-.25.35-.947-.258-1.291 0-.226.169-.309.539-.239.813.095.371.798.43.813.813.011.293-.28.658-.574.669-.383.015-.434-.757-.813-.813-.465-.068-.777.734-1.243.67-.77-.108-1.466-.876-1.673-1.626-.066-.238.24-.475.191-.717-.051-.256-.47-.36-.478-.622zm5.259-10.279c-.364-.295-.77-.68-.813-1.147-.021-.227.302-.394.287-.622-.014-.207-.343-.318-.335-.525.019-.478.388-1.076.861-1.148.914-.138 1.716.869 2.247 1.626.333.475.095 1.238.478 1.673.401.455 1.232.301 1.673.717.467.44 1.055 1.11.861 1.721-.071.225-.386.337-.622.335-.292-.003-.473-.403-.765-.43-.25-.024-.466.265-.717.239-.532-.056-1.147-.333-1.386-.813-.122-.244.231-.576.095-.813-.337-.588-1.338-.385-1.864-.813zm-7.267-7.936c.328-1.483 2.51-2.349 4.016-2.151.346.045.421.778.765.717.245-.044.117-.548.335-.669.461-.257 1.058.236 1.577.143.4-.072.694-.55 1.1-.526.357.021.71.275.908.574.107.161-.015.414.096.573.199.288.815.189.908.526.131.475-.28 1.065-.717 1.291-1.282.662-2.87-.649-4.303-.478-1.296.155-2.43 1.711-3.681 1.339-.535-.159-1.124-.794-1.004-1.339zm-27.968 6.167c-.183-.446-.195-1.145.191-1.434.581-.434 1.458.122 2.151.335 1.213.372 2.187 1.441 3.443 1.625.637.094 1.279-.409 1.912-.286.309.059.593.253.813.478.319.326.585.746.669 1.195.083.443.17 1.069-.191 1.338-.619.463-1.598-.001-2.295-.334-.529-.253-.757-.953-1.291-1.195-1.124-.509-2.536.077-3.681-.383-.674-.271-1.446-.666-1.721-1.339zm-35.857-10.613c-.43.31-.666.96-.574 1.482.06.334.592.435.67.765.087.369-.508.792-.287 1.1.661.921 2.273.067 3.394.239.68.104 1.322.433 2.008.478.768.05 1.763.316 2.295-.239.541-.565-.353-1.738.143-2.343.91-1.109 3.802.289 4.16-1.1.5-1.943-2.387-3.749-4.35-4.159-.5-.104-1.083.894-1.435.526-.287-.299.584-.747.478-1.148-.18-.68-.97-1.336-1.673-1.29-.967.062-1.828 1.114-2.056 2.055-.197.813 1.03 1.598.765 2.391-.21.629-.999.931-1.626 1.147-.603.208-1.395-.278-1.912.096zm89.385-5.057c.067-.949.553-2.187 1.469-2.448 1.632-.466 4.07.692 4.529 2.326.289 1.029-.741 2.212-1.673 2.734-.51.286-1.188.146-1.755 0-.707-.183-1.429-.518-1.917-1.061-.375-.417-.693-.991-.653-1.551zm7.794-6.325c1.143-.046 1.988-1.206 3.101-1.469 1.245-.294 3.21 1.034 3.836-.081.923-1.649-3.062-3.019-2.857-4.897.052-.478.951-.581.98-1.061.028-.486-.404-1.006-.857-1.183-.259-.102-.545.218-.816.163-.355-.072-.537-.637-.898-.612-.807.056-1.526.869-1.796 1.632-.412 1.168 1.617 3.008.572 3.673-.72.457-1.821-.631-2.122-1.429-.209-.552.425-1.123.449-1.714.026-.69.148-1.58-.368-2.04-.467-.417-1.27-.28-1.877-.122-1.113.29-2.381.848-2.897 1.877-.373.743-.221 1.752.163 2.489.202.386.989.382 1.02.816.021.279-.315.501-.571.612-.561.244-1.32-.329-1.836 0-.708.452-1.236 1.464-1.061 2.285.086.406.524.8.938.817 1.147.046 1.641-1.862 2.775-2.041.553-.087 1.127.219 1.592.531.432.29.593.884 1.02 1.183.441.309.972.593 1.51.571zm17.873 2.694c-.517.326.118 1.424-.368 1.795-.346.265-.944-.325-1.305-.082-.607.409-.97 1.404-.694 2.082.179.439.983.271 1.265.652.181.245.002.64.163.898.268.429.743.74 1.224.898.698.228 1.494-.187 2.204 0 .907.239 1.521 1.528 2.448 1.387.295-.045.351-.509.612-.653.316-.173.77.008 1.061-.204.527-.383.895-1.064.939-1.713.033-.494-.247-.982-.531-1.388-.392-.561-1.345-.694-1.55-1.346-.135-.428.469-.881.326-1.306-.261-.78-1.097-1.499-1.918-1.551-.67-.042-1.05.956-1.714 1.061-.733.116-1.535-.927-2.162-.53zm-6.897-18.771c-.576 1.194 1.871 2.274 1.714 3.591-.142 1.2-2.268 1.607-2.285 2.815-.007.514.443 1.088.939 1.224 1.13.311 2.112-1.091 3.264-1.305 1.11-.207 2.321-.332 3.387.04.878.308 1.897.836 2.204 1.714.42 1.202-1.454 2.568-.898 3.714.157.323.621.467.979.449.268-.014.436-.335.694-.409.484-.138 1.142.304 1.51-.04.957-.896-.54-2.97.367-3.918.617-.645 2.066.306 2.652-.367.59-.677-.254-1.832 0-2.693.156-.528.937-.838.898-1.388-.019-.269-.529-.342-.53-.612-.002-.231.434-.299.449-.53.023-.373-.302-.731-.613-.939-.241-.162-.616 0-.856-.163-.359-.244-.27-1.012-.694-1.102-.738-.155-1.168 1.009-1.877 1.265-.887.321-1.886.447-2.816.286-.935-.162-1.687-.878-2.571-1.224-1.061-.416-2.125-.977-3.264-1.02-.907-.035-2.258-.206-2.653.612zm17.057 7.182c-.402-.152-.645-.641-.734-1.061-.135-.637.047-1.351.367-1.918.18-.319.7-.388.816-.735.137-.407-.264-.836-.245-1.265.025-.537.415-1.013.449-1.55.058-.893-.835-1.867-.408-2.653.413-.759 1.589-1.439 2.367-1.061.353.172-.077.993.286 1.143.705.291 1.202-1.081 1.958-1.184.798-.108 1.672.183 2.326.653.294.212.272.775.612.898.838.303 1.683-.811 2.571-.734.467.04.978.241 1.265.612.382.493.432 1.215.367 1.836-.064.618-.88 1.11-.734 1.714.315 1.305 1.917 1.938 3.101 2.571.463.247 1.156.836 1.51.448.444-.487-.903-1.198-.735-1.836.111-.421.622-.641 1.021-.816.579-.254 1.252-.384 1.877-.286.601.095 1.285.317 1.632.817.148.213.165.529.082.775-.128.373-.445.725-.817.857-.4.142-.862-.301-1.265-.163-.491.167-1.157.585-1.101 1.101.101.949 2.09.651 2.407 1.551.229.649-.856 1.301-.653 1.959.358 1.159 1.86 1.574 2.898 2.203 1.092.663 2.466.839 3.468 1.632.531.421 1.201.917 1.265 1.592.067.702-.811 1.192-.979 1.877-.289 1.176-.826 2.747 0 3.632.27.289.872.326 1.183.081.445-.349.013-1.177.286-1.673.176-.32.486-.575.816-.734.509-.247 1.13-.445 1.673-.286.6.176 1.367.64 1.387 1.265.017.51-1.154.601-1.061 1.102.119.634 1.444.251 1.755.816.357.649.015 1.527-.286 2.203-.501 1.129-1.174 2.747-2.407 2.816-.855.048-1.078-1.447-1.877-1.755-.775-.298-1.703.307-2.489.041-.542-.182-.777-1.018-1.347-1.061-.766-.057-1.235 1.072-2 1.143-.372.035-.805-.094-1.061-.367-.605-.649-.018-1.995-.693-2.571-.874-.747-2.391.128-3.428-.367-.521-.249-.677-1.04-1.224-1.225-.676-.228-1.512.657-2.122.286-.173-.105-.027-.474-.204-.571-.439-.243-1.044.592-1.469.326-.249-.156.06-.728-.204-.857-.793-.387-1.594 1.444-2.408 1.102-1.107-.465-.158-2.834-1.224-3.387-.275-.143-.655.438-.898.245-1.032-.823-.255-2.706.164-3.958.152-.455.43-.9.816-1.184.7-.515 2.004-.054 2.489-.775.724-1.076.379-2.789-.327-3.877-.583-.898-1.744-1.529-2.815-1.55-.791-.016-1.497.576-2.122 1.061-.427.331-.534 1.107-1.061 1.224-.422.093-.753-.492-1.183-.53-.559-.05-1.108.605-1.633.408z"/><path d="M207.336 358.971c-.284-.464-.035-1.224.367-1.591.294-.269.802-.277 1.184-.163.554.166 1.154.584 1.305 1.142.113.415-.031 1.018-.408 1.225-.737.404-2.009.105-2.448-.613zm6.57 19.791c-1.067-.706-.44-2.596-.123-3.835.153-.597.47-1.193.939-1.592.511-.435 1.218-.601 1.877-.734.507-.103 1.107-.307 1.55-.041.861.516 1.476 1.698 1.347 2.693-.116.898-1.052 1.522-1.795 2.04-1.113.777-2.664 2.218-3.795 1.469zm21.466-60.343c-.094-.306.109-.702.371-.888.322-.23.839-.267 1.184-.074.39.218.717.746.629 1.184-.069.344-.464.647-.814.666-.543.03-1.209-.368-1.37-.888zm-65.918-.174c-.155-.357-.189-.904.101-1.162.416-.37 1.204-.256 1.668.05.201.133.345.42.303.657-.096.539-.615 1.128-1.162 1.162-.384.024-.756-.355-.91-.707zm4.295 26.979c.365.36 1.04.443 1.516.253.312-.126.579-.473.606-.809.032-.398-.218-.847-.556-1.061-.37-.234-.914-.23-1.314-.05a.868.868 0 0 0-.454.556c-.095.364-.066.847.202 1.111zm58.881-143.688c-.693-.302-1.23-1.075-1.349-1.821-.078-.491.094-1.093.472-1.416.624-.533 1.669-.717 2.428-.405.745.306 1.429 1.151 1.417 1.956-.01.625-.602 1.178-1.147 1.484-.533.299-1.261.446-1.821.202zm250.276 288.541c-.466-.048-.833-.538-1.018-.969-.159-.371-.113-.823 0-1.211.177-.607.408-1.434 1.018-1.599.579-.157 1.225.355 1.599.824.364.456.654 1.154.436 1.696-.298.74-1.241 1.342-2.035 1.259zm61.247-45.984c-.163-.369-.153-.861.049-1.211.105-.183.327-.295.533-.339.574-.125 1.359-.201 1.744.242.287.329.176.909 0 1.308-.203.46-.611 1.007-1.114 1.018-.527.011-.998-.535-1.212-1.018zm32.514 7.511c-.276-.171-.498-.553-.436-.872.037-.191.248-.34.436-.388.353-.091.825-.031 1.066.242.225.256.326.766.097 1.018-.261.287-.833.204-1.163 0zm16.233 12.211c-.235-.214-.401-.646-.243-.921.151-.262.584-.33.872-.242.285.086.55.382.582.678.026.237-.125.525-.339.63-.265.13-.655.053-.872-.145zm-13.035-61.442c.273-.116.436-.479.436-.775 0-.297-.194-.604-.436-.775-.227-.162-.563-.245-.824-.146-.268.103-.483.395-.533.679a.851.851 0 0 0 .243.726c.28.263.761.441 1.114.291zm2.423.436c-.171-.166-.383-.395-.339-.63.054-.292.39-.504.678-.581.334-.089.814-.085 1.018.194.153.21.017.541-.097.775-.121.246-.311.538-.582.581-.249.041-.497-.163-.678-.339zm-4.446-5.387c-.235-.129-.187-.569-.057-.803a.405.405 0 0 1 .363-.191c.269.02.669.209.65.478-.025.361-.638.69-.956.516zm-.497 2.123a.527.527 0 0 1-.134-.478c.046-.194.204-.421.402-.44.15-.015.288.137.363.267.136.233.295.622.096.804-.183.167-.546.016-.727-.153zm4.628-20.672c-.059-.238-.068-.563.115-.726.333-.298.945.155 1.338-.058.145-.078.138-.332.287-.401.209-.097.53-.11.688.057.175.186.195.58.019.765-.162.171-.546-.154-.707.019-.196.21.18.611.038.861-.107.188-.361.262-.574.305-.207.042-.446.046-.631-.057a1.247 1.247 0 0 1-.573-.765zm52.623 40.136c.046-.62 1.368-.877 1.159-1.462-.146-.408-1.169.145-1.269-.276-.128-.541.765-.886 1.297-1.048.406-.124 1.04.468 1.268.11.16-.25-.429-.476-.441-.772-.013-.325.112-.762.414-.883.33-.132.743.134.993.386.221.224.309.569.331.883.018.254-.256.507-.165.745.226.591 1.098.655 1.544 1.103.247.248.491.526.607.855.344.973.712 2.198.193 3.09-.262.452-.888.629-1.407.69-.496.058-1-.14-1.462-.331-.733-.304-1.464-.697-2.013-1.269-.486-.505-1.1-1.123-1.049-1.821zm11.11-78.83c.373.262.894-.223 1.351-.221.27.002.605.326.799.138.573-.555.113-1.707-.331-2.371-.1-.15-.295-.222-.468-.275-.387-.12-.817-.17-1.213-.083-.43.095-1.052.207-1.158.634-.125.502.661.816.854 1.296.113.277-.079.71.166.882zm62.242 67.758c-.051-.513-.042-1.075.188-1.536.35-.701.958-1.362 1.693-1.631.905-.331 2.004-.201 2.885.188.372.165.501.695.878.847.601.243 1.375-.31 1.944 0 .525.286.805.932.972 1.505.486 1.666.669 3.618-.031 5.205-.15.338-.476.605-.815.753-.51.221-1.113.208-1.662.125a6.614 6.614 0 0 1-2.634-1.035c-1.171-.775-2.216-1.811-2.948-3.01a3.4 3.4 0 0 1-.47-1.411zm15.082 27.468c-.145-1.041 2.131-1.301 2.101-2.352-.021-.753-1.311-.903-1.599-1.599-.252-.608-.12-1.328 0-1.975.149-.804.289-1.723.878-2.289.421-.406 1.224-.177 1.662-.565.885-.784.594-2.483 1.536-3.198.237-.18.586-.214.878-.157 1.471.291 2.708 1.381 3.794 2.414 1.597 1.519 3.143 3.298 3.825 5.394.25.765.46 1.733.032 2.414-.779 1.239-2.542 1.588-3.982 1.85-.413.075-.871-.263-1.255-.094-.51.225-.555 1.03-1.034 1.317-.565.338-1.559-.189-1.944.345-.297.411.413 1.036.219 1.505-.159.386-.589.698-1.003.752-.558.074-1.278-.144-1.568-.627-.395-.658.467-1.552.251-2.289-.098-.335-.318-.737-.659-.815-.428-.098-.752.591-1.191.564-.371-.022-.89-.228-.941-.595zm3.526-81.123c.313-.907 1.246-1.81 2.205-1.852 1.434-.063 3.259 1.059 3.528 2.469.165.866-.733 1.702-1.455 2.205-.744.518-1.775.866-2.646.618-.52-.149-.889-.672-1.147-1.147-.372-.687-.739-1.554-.485-2.293zm14.376-31.53c.173-.468.597-.867 1.058-1.058.869-.36 1.943-.333 2.823 0 1.246.471 2.888 1.317 2.998 2.646.05.604-.909.853-1.146 1.411-.475 1.117-.17 2.432-.441 3.616-.295 1.287-.148 3.068-1.279 3.748-1.429.859-4.203.702-4.939-.794-.177-.36.256-.812.573-1.058.527-.409 1.511.025 1.94-.485.637-.755-.297-2.114.221-2.955.135-.218.644-.14.661-.396.066-.96-1.8-.958-2.249-1.809-.446-.847-.553-1.967-.22-2.866zm25.444 30.78c.531-.636 1.431-.93 2.249-1.058.557-.087 1.113.23 1.676.221.358-.007.708-.248 1.058-.177 1.16.234 1.848 2.166 2.999 1.896.385-.09.318-.755.617-1.014.254-.22.591-.387.927-.397.516-.014 1.138.122 1.455.529.181.234-.136.689.088.882.49.424 1.466.352 1.94-.088 1.075-.997-.492-3.314.529-4.365.757-.779 2.161-.726 3.22-.486 1.021.232 1.941.951 2.601 1.764.71.876 1.34 2.006 1.279 3.131-.056 1.051-.655 2.15-1.499 2.778-.638.476-1.544.55-2.337.486-.612-.05-1.175-.945-1.72-.662-.43.224-.106.994-.353 1.411-.561.949-1.329 2.135-2.425 2.249-.341.036-.539-.537-.882-.529-.583.014-.886.845-1.455.97-1.395.307-3.381.485-4.234-.661-.452-.607.863-1.734.309-2.249-.363-.338-.961.346-1.455.308-1.411-.107-2.936-.534-3.969-1.499-.568-.53-.905-1.343-.97-2.117-.039-.454.06-.972.352-1.323zm27.782 15.346c.109-.621.366-1.255.794-1.719 1.075-1.166 2.559-2.361 4.145-2.338.996.015 1.898.798 2.558 1.544.501.567.987 1.318.926 2.073-.054.666-.877 1.046-1.103 1.675-.23.64.179 1.478-.22 2.029-.502.692-1.484.995-2.337 1.058-1.555.115-3.506-.077-4.498-1.279-.649-.785-.44-2.04-.265-3.043zm17.037-24.41c-.266-.393-.273-1.064.037-1.423.331-.383 1.039-.478 1.497-.262.481.227.89.865.787 1.385-.084.419-.589.721-1.011.786-.461.071-1.049-.1-1.31-.486zm16.77-20.589c.004-.441.229-.993.637-1.16.445-.184.912.504 1.385.411.235-.046.332-.377.561-.449.358-.112.87-.202 1.123.075.388.423.321 1.273-.037 1.722-.289.362-.964.077-1.348.337-.229.155-.238.552-.487.674-.303.148-.725.142-1.01-.038-.501-.315-.829-.98-.824-1.572zm-11.679-28.6c.133.517.815.883 1.347.861.392-.016.751-.366.936-.711.184-.341.314-.855.075-1.16-.343-.44-1.144-.541-1.647-.3-.448.215-.835.829-.711 1.31zm6.251-2.358c-.216.501-.058 1.374.449 1.572.313.123.69-.235.861-.524.128-.214-.162-.599.038-.748.339-.254.842.457 1.235.299.453-.182.83-.749.786-1.235-.039-.44-.484-.821-.898-.974-.484-.177-1.21-.212-1.535.188-.19.233.22.635.075.898-.184.332-.861.176-1.011.524zm-67.132-20.294c.282-.824 1.062-1.673 1.928-1.761 1.035-.106 2.128.714 2.684 1.593.48.759.594 1.853.251 2.683-.249.606-.86 1.171-1.509 1.258-1.066.143-2.279-.489-2.935-1.341-.502-.652-.686-1.654-.419-2.432zm6.457-8.47c-.037-.767.569-1.591 1.258-1.929.629-.309 1.43-.05 2.096.168.811.265 1.64.681 2.18 1.342.566.691 1.151 1.652.923 2.515-.122.461-.623.833-1.09.923-1.389.267-2.865-.533-4.025-1.342-.588-.409-1.308-.962-1.342-1.677zm16.855 7.044c-.421.342-.44 1.061-.335 1.593.289 1.461 1.034 3.828 2.516 3.69.486-.045.487-.864.587-1.342.086-.41-.153-.867 0-1.257.195-.498 1.171-.647 1.09-1.175-.068-.445-.728-.609-1.174-.67-.457-.063-.951.579-1.342.335-.339-.212.06-.922-.251-1.174-.283-.228-.808-.229-1.091 0zm-54.34-34.718c-.153-.96.097-2.253.922-2.767.886-.552 2.416-.367 3.103.419.441.505-.576 1.669 0 2.013.354.211.856-.247 1.09-.587.495-.72-.414-2.15.336-2.6 1.152-.692 2.792.507 3.773 1.426.247.231.107.794.419.922.802.331 1.567-.97 2.432-.922 1.349.074 2.902.693 3.606 1.845.336.548.159 1.305 0 1.928-.259 1.019-.553 2.332-1.509 2.768-.833.38-1.775-.701-2.684-.587-.992.124-1.727 1.047-2.683 1.342-1.402.431-3.098 1.332-4.361.587-1.265-.748-.313-3.388-1.593-4.11-.421-.236-.978.431-1.426.252-.742-.296-1.3-1.139-1.425-1.929zm20.881 18.701c-.305-.83.244-1.861.838-2.516.37-.408.959-.68 1.51-.671.962.016 2.098.436 2.599 1.258.583.955.595 2.466-.084 3.354-.354.464-1.098.577-1.677.504-1.231-.157-2.758-.764-3.186-1.929zm-63.517 71.242c-.31-.274-.661-.759-.495-1.137.204-.463.952-.646 1.435-.495.506.159.789.777.94 1.286.084.285.193.719-.05.891-.52.366-1.354-.123-1.83-.545zm6.43-9.101c-.298-.101-.619-.379-.643-.693-.037-.497.344-1.203.841-1.237.42-.027.667.558.841.94.11.242.257.578.099.792-.229.309-.773.321-1.138.198zm3.908-10.388c-.398-.412-.689-1.224-.346-1.682.238-.318.806-.209 1.187-.099.476.137 1.07.41 1.187.89.109.445-.18 1.041-.593 1.237-.445.211-1.093.007-1.435-.346zm-6.084 11.525c-.178-.197-.269-.587-.099-.791.191-.228.649-.223.89-.05.305.22.557.817.297 1.089-.257.268-.838.028-1.088-.248zM564.948 211.238c.17-.046.196-.316.356-.391.236-.111.55.084.781-.035.308-.159.672-.473.64-.818-.025-.267-.53-.275-.604-.533-.058-.201.261-.411.178-.604-.254-.583-1.074-.789-1.706-.853-.318-.032-.686.036-.924.249-.266.238-.39.639-.391.995-.003.596.205 1.263.64 1.67.262.246.683.415 1.03.32zm-6.077-4.229c.343-.041.759-.11.96-.391.378-.531.486-1.424.106-1.954-.279-.391-.907-.426-1.386-.391-.581.041-1.404.161-1.599.71-.235.665.388 1.473.96 1.884.262.189.638.181.959.142zm-12.403-23.81c-.023-.325.228-.707.534-.818.454-.164 1.058.071 1.385.427.189.205.203.539.178.817-.019.217-.086.459-.249.604-.193.173-.498.286-.746.213-.532-.155-1.061-.691-1.102-1.243zm3.163 1.101c-.199-.337-.122-.832.071-1.172.355-.623 1.064-1.276 1.777-1.209.351.033.593.43.747.747.172.354.291.808.142 1.172-.224.546-.8 1.034-1.386 1.102-.495.057-1.097-.211-1.351-.64zm-8.92-10.91c.048-.352.593-.5.64-.853.033-.253-.349-.464-.284-.711.119-.456.63-.88 1.101-.888.296-.005.549.285.711.533.14.214.26.504.178.746-.103.303-.667.294-.747.605-.069.272.291.501.32.781.034.324.086.769-.177.96-.368.267-.993.102-1.351-.178-.281-.219-.439-.642-.391-.995zm-21.074 1.208c-.393.108-.856-.207-1.101-.533-.29-.384-.428-.974-.249-1.421.147-.37.563-.676.959-.711.317-.028.625.205.853.427.233.224.477.529.462.852-.025.555-.388 1.24-.924 1.386zm1.137-2.381c-.398-.131-.84-.54-.817-.959.015-.276.334-.508.604-.569.377-.085.869.048 1.102.356.193.255.23.705.035.959-.192.251-.623.313-.924.213zm-8.138 4.656c-.194-.314-.092-.791.107-1.102.318-.496.944-.964 1.528-.888.399.052.738.467.853.853.1.336-.036.728-.213 1.03-.175.297-.443.616-.782.675-.525.093-1.212-.116-1.493-.568zm-38.715-42.105c-.41-.03-.785-.396-.97-.764-.149-.297-.209-.718-.029-.998.178-.277.583-.418.911-.382.405.044.787.357.998.705.149.245.244.594.118.852-.174.354-.635.616-1.028.587zm-1.44 3.173c-.083-.31.1-.73.382-.882.149-.08.36-.007.5.088.264.181.491.502.499.823.007.267-.121.647-.382.705-.403.09-.891-.336-.999-.734zm4.054 3.466c-.133-.24-.161-.626.03-.823.197-.204.599-.191.851-.059.222.117.42.399.382.647-.043.287-.357.555-.646.587-.235.026-.502-.145-.617-.352zm86.274 40.803c-.094-.447.063-1.097.48-1.281.526-.233 1.365.116 1.602.64.298.658-.016 1.888-.721 2.043-.636.139-1.228-.764-1.361-1.402zm4.805 6.407c-.104-.462-.082-1.054.24-1.401.262-.283.773-.444 1.122-.281.47.22.688.883.68 1.402-.004.316-.16.694-.44.841-.393.206-.941.068-1.322-.16a.65.65 0 0 1-.28-.401zm165.055 24.958c-.59-.244-1.053-.791-1.355-1.354-.271-.508-.329-1.118-.338-1.694-.01-.572-.088-1.256.282-1.693.373-.441 1.06-.576 1.637-.564.929.019 2.018.288 2.596 1.016.568.714.682 1.843.395 2.709-.234.707-.892 1.295-1.58 1.58a2.215 2.215 0 0 1-1.637 0zm8.459-69.847c-1.348-.531-2.27-2.097-2.555-3.518-.155-.773.043-1.695.545-2.303.799-.969 2.547-.66 3.434-1.55.41-.411.265-1.22.712-1.591.32-.266.803-.357 1.214-.293.533.082.861.7 1.382.837.473.125.98-.097 1.466-.042 1.104.125 2.561-.053 3.225.838.233.313.102.809-.042 1.172-.727 1.83-3.31 2.56-3.895 4.44-.213.684.417 1.438.251 2.135-.169.716-.573 1.483-1.214 1.843-.67.377-1.566.299-2.303.084-.473-.138-1.085-.364-1.215-.838-.151-.548 1.063-1.102.712-1.549-.36-.459-1.174.548-1.717.335zm35.471 30.069c-.098-1.136 1.307-1.903 2.178-2.639.812-.686 1.716-1.772 2.764-1.591 1.103.191 1.127 2.171 2.178 2.555.239.087.518-.222.753-.126.241.098.488.37.461.628-.037.354-.444.659-.796.712-.364.055-.642-.527-1.005-.461-1.019.189-1.219 1.826-2.177 2.22-.891.366-1.989.299-2.89-.042-.602-.228-1.41-.615-1.466-1.256zm28.153-3.887c-.413-.111-.723-.658-.687-1.084.029-.34.36-.659.687-.758.285-.087.578.291.867.216.239-.061.296-.477.542-.505.359-.041.802.207.939.541.242.59.104 1.66-.506 1.843-.367.111-.486-.713-.867-.759-.363-.044-.622.602-.975.506zm7.488-49.204c-.889-.569-1.303-2.17-.758-3.074.198-.33.737-.332 1.118-.28.454.062.921.312 1.197.679.206.273-.054.822.24.998.224.134.497-.2.759-.2.261 0 .545.049.758.2.29.204.6.524.599.878-.002.68-.537 1.401-1.158 1.678-.38.169-.896.078-1.237-.16-.284-.198-.169-.768-.48-.919-.317-.153-.741.39-1.038.2zm40.372 173.143c-.411-.163-.771-.672-.725-1.113.056-.544.618-1.09 1.161-1.161.573-.075 1.295.33 1.5.871.126.334-.076.774-.339 1.016-.403.371-1.087.589-1.597.387zM991.619 87.238c.208-.545.912-.828 1.488-.92.6-.097 1.241.13 1.772.424.869.482 1.815 1.147 2.126 2.091.263.795.085 1.79-.39 2.48-.471.685-1.332 1.3-2.161 1.24-.688-.049-1.241-.705-1.63-1.275-.791-1.161-1.704-2.726-1.205-4.04zm-54.229 9.739c-.514-.453-.656-1.277-.618-1.962.035-.616.179-1.465.753-1.692.451-.18.873.441 1.343.564.463.12 1.029-.107 1.424.161.455.308.706.907.78 1.451.054.4.1 1.018-.269 1.182-.234.105-.418-.413-.672-.376-.457.067-.527.854-.967.994-.572.183-1.323.075-1.774-.322zm4.12.004c-.141-.223-.185-.587-.018-.792.178-.217.607-.32.829-.147.199.155.16.526.055.755a.653.653 0 0 1-.497.368.425.425 0 0 1-.369-.184zm-13.461 39.473c-.481-.242-.78-.807-.922-1.327-.259-.951-.356-2.15.222-2.949.28-.388.848-.576 1.326-.553 1.016.049 2.061.64 2.691 1.438.512.648 1.264 1.871.627 2.396-.263.216-.599-.551-.922-.443-.484.163-.268 1.091-.7 1.364-.654.414-1.63.422-2.322.074z"/></g><path fill="#352021" stroke="#471f21" stroke-width="2" d="M483.83 31.823 504.396 4.73l34.98 28.564-23.873 23.319Z"/><circle cx="693.09" cy="302.309" r=".503" fill="#666"/></svg>