<svg xmlns="http://www.w3.org/2000/svg" xml:space="preserve" viewBox="0 0 1062.483 535.174"><g class="shadow"><path fill="#666" d="m354.752 215.488-7.914 52.836 16.596 2.487 7.914-52.836-7.504-1.125-.037.205-.135.767-.809-.103-.804-.106.12-.789.034-.219zm6.375 8.219.8.143.802.14-.106.809-.103.805-.78-.12-.777-.119-.037-.049-.037-.05.119-.78zm-1.186 7.748.82.125.821.125-.121.79-.12.786-.82-.125-.82-.127.12-.787zm-1.173 7.674.8.14.801.141-.119.79-.121.786-.807-.103-.806-.106.127-.824zm-1.186 7.748.822.125.82.125-.12.787-.122.787-.82-.125-.818-.127.119-.787zm-1.144 7.715.787.119.787.121-.12.787-.12.787-.81-.103-.808-.106.143-.802zm-1.211 7.701.8.14.801.141-.1.774-.1.773-.821-.125-.823-.125.121-.79zm139.147-115.164-2.764.502 1.9 10.477.594-.108.04.211-4.987.926-.605.11.158.868-.195.035-2.863-14.13-10.83 1.89 3.554 17.772 10.836-1.894-.393-1.999.188-.035.452 2.07 8.017-1.453.04.217-.477.086.117.654 3.25-.58-.12-.653-.45.082-.04-.219.444-.08-.906-4.58-3.71.645-.04-.21.69-.125zM384.38 126.097l-1.771.414.125.533.298-.07.03.127-.303.072.688 2.915 2.498-.582-.334-1.426-.72.168-.357-1.491-.26.06-.029-.127.26-.06zM64.931 174.436l-2.13-.292-.28 2.037 2.87.394-.058.426 11.594 1.59.448-3.266-11.598-1.59-.11.802zm161.866 15.172-2.484-.303-.235 1.922 3.043.371-.056.458 10.996 1.341.363-2.978-11.025-1.344-.073.598z"/><path fill="#987f00" d="m494.623 166.857 6.46-1.262-.65-3.584-6.46 1.262zm-430.86.199 2.131.293-.963 7.087-2.13-.292zm161.408 14.947 2.484.303-.858 7.302-2.484-.303zm251.324-25.257 10.943-2.089-.315-1.74-10.944 2.088zM350.889 260.08c-.24-2.254 1.798-2.942 1.03-7.361-.25-1.443 3.566-.699 3.413.477-.284 2.192-1.075 4.695-1.03 7.363.02 1.258-3.272.844-3.413-.478zm10.651-42.115c.826.24.988 3.227.295 5.153-.698 1.94-2.535 1.349-3.074.176-.963-2.097-1.15-4.584-.294-5.154.662-.44 1.565-.615 3.073-.175zm21.336-97.711-1.772.412 1.34 5.73 1.772-.413z"/></g></svg>