<svg xmlns="http://www.w3.org/2000/svg" xml:space="preserve" viewBox="0 0 1062.483 535.174"><g class="shadow"><path fill="#987f00" d="m483.493 150.22-.662.12-.66.121.603 3.33.56 3.096 1.323-.238-.56-3.098zm-405.89 16.828 3.397.356-.155 1.45-3.397-.355zm11.492 7.858 3.194.352-.284 2.846-3.195-.352zm43.244 6.586 2.348.296-.614 4.868-2.349-.296zm13.886 1.913 2.291.29-.6 4.748-2.29-.289zm-8.709 45.489-5.748-.766.375-2.717 5.748.766zm-1.902 12.483-5.286-.727-.368 2.664 5.286.726zm232.09 2.867.747-5.037 5.65.864-.746 5.037zm-.733 4.691.651-4.241 5.652.864-.652 4.241zm127.652-82.078 6.46-1.262-.65-3.584-6.46 1.262zm-5.377 34.049-4.839.982-.665-3.67 4.838-.981zm115.606-60.056-4.174.884-.625-3.084 4.174-.885zm-15.218 73.717.32 1.53 3.004-.625-.32-1.53zm302.491-22.305 5.942.193.077-3.003-5.941-.193zM461.509 444.158l-4.264-.64.362-2.42 4.263.64zm60.095 15.767-.353 2.545 4.19.566.352-2.544zm-5.261-14.088 8.018 1.111.266-1.92-8.017-1.112zm-6.123 42.751 7.894 1.094.262-1.89-7.894-1.095zm-53.639-17.578 7.229.98.235-1.731-7.229-.981zm10.548-184.925-5.126.936-.808-4.425 5.126-.936zM617.854 296.7l3.509.232.314-4.744-3.509-.232zm-503.499-46.306.709-4.65 2.606.384-.7 4.65zm232.459 19.002 1.483.227.5-3.278-1.482-.227zM613.1 160.006l-4.738.96.287 1.426 4.737-.96z"/><g fill="#666"><path d="m614.94 135.503-2.387.498-3.2.642.06.308.147.702-.076.015-.077.017-.147-.704-.061-.307-2.473.506-2.99.607.17.844.17.843-.374.077-.374.079-.667.132-.669.133.158.784.16.782 1.963-.398 2.605-.521.183.943.182.947-.067.023-.067.023-.177-.876-.177-.876-3.341.67-2.7.547 1.955 9.644 1.953 9.646 2.698-.547 3.341-.67-.146-.72-.146-.722.077-.014.077-.015.146.718.146.723.613-.122.08.374 1.42-.305-.073-.365.94-.2-.447-2.21-.544-2.651.077-.018.077-.015.186.89 2.905-.596 2.684-.542-.417-2.025-.615-3.035-2.684.543-2.905.597.275 1.349.272 1.349-.076.015-.077.017-1.588-7.869-1.058-5.247.071-.006.07-.004.775 3.812 1.305 6.43 2.905-.597 2.684-.543-1.587-7.865zm-7.013 10.222 1.043 5.153 1.044 5.15-.077.018-.077.015-1.043-5.153-1.043-5.152.076-.016zm-110.445-1.297-.75.136 1.561 8.543-10.33 1.89.389 2.122-.618.113-.216-1.171-10.55 1.95-1.751-9.474-.637.117 3.149 17.033 2.146-.402.977 5.156-2.17.407 5.06 27.37 3.78-.767.72 3.658-3.835.779 1.042 5.579 11.106-2.053-2.444-13.223.65-.119 2.413 13.233 11.058-2.02-6.875-37.74-4.212.826-.633-3.416 4.213-.78zm-8.89 14.013 4.474 24.485 1.729-.315.844 4.618-1.705.312.25 1.371-.602.111-3.746-20.275-6.924 1.28-.933-5.057 6.906-1.278-.95-5.13zm14.836 22.64.783 4.464-6.365 1.115-.782-4.465zm-380.836 30.112-.92 6.485-.798 5.777 2.935.404 2.853.396.199-1.428.298-2.016.066.01.066.01-.298 2.016-.196 1.425 6.583.938-.125.893-.105.761.51.055.76.104.103-.752.125-.9 3.78.509.545-3.947.728-5.186-.591-.089-.594-.088v-.123l.601.082.604.084.242-1.76.183-1.233-5.775-.799-5.857-.808-.244 1.76-.181 1.232 4.482.62 4.402.608-.01.068-.01.067-4.401-.61-4.482-.618-.193 1.399-.277 2.051 2.682.37 1.283.177.09-.667.094-.667.065.008.07.01-.103.734-.102.734-1.348-.186-2.75-.38-.03.229-.032.228-.058-.017-.06-.016.561-4.165.418-2.988-2.855-.393zm8.779 30.783-.12.866-.119.863-.31-.058-.282 2.049-.3 2.22-4.185-.577-3.095-.427.01-.073.008-.06 3.022.418 4.126.567.29-2.153.273-1.983-5.275-.72-4.17-.57-.272 1.97-.288 2.14.51.08.512.077-.01.065-.01.066-.572-.079-.583-.081.134-1.024.11-.797-.325-.043-.349-.05.012-.073.008-.06.333.045.34.047.156-1.129.162-1.172-1.35-.195-1.348-.192-.164 1.186-.154 1.13.332.046.332.045-.01.067-.01.067-.424-.058-.426-.058.008-.055-1.582-.218-.924-.146-.168 1.222-.168 1.222 1.247.17 1.246.182.04-.287.038-.287.197.028-.06.443-.062.443-.099.715-.097.713 3.713.514 3.764.518-.017.061-.016.058-3.754-.512-3.71-.506-.5 3.623-.24 1.642 8.75 1.21 8.75 1.209.331-2.407.41-2.859-3.194-.435-4.199-.586.01-.068.009-.066 2.39.338 1.888.26.269-1.942.267-1.94.068.008.066.01-.268 1.942-.27 1.942 1.743.24 1.239.165.45-3.257.458-3.312-1.24-.166-1.742-.242-.1.734-.095.678-.066-.01-.065-.01.093-.678.1-.732-.452-.063.12-.864.12-.863-.758-.105zm485.994 39.975-.353 4.688-.356 4.687-1.068-.08-2.172-.166-.297 3.926-.297 3.926-.035.474-.037.475 2.488.19 1.348.1.021-.286.022-.287.89.066.893.068-.023.288-.022.287 3.164.24 3.752.277.024-.316.023-.317.29.022.286.023.098-1.285.098-1.285.189-2.512.19-2.511-.327-.026-.248-.017.067-.893.068-.89.244.019.33.023.225-2.976.226-2.977.063-.818.062-.82-.38-.03-.196-.013.022-.29.021-.287-3.752-.277-3.162-.24-.023.287-.022.287-.89-.066-.893-.069.023-.287.02-.287-.295-.023-.299-.022zm.803 10.004 3.51.233-.315 4.744-3.51-.233.315-4.744zm-98.748-20.514-43.402 7.926.42 2.297-2.55.465-.421-2.313-7.242 1.323.904 4.947-5.92 1.08 1.152 6.31 13.198-2.41-1.075-5.88 2.582-.471 1.077 5.908 43.207-7.89-.141-.79-28.297 5.168-1.787-9.79 28.42-5.192zm-30.666 6.313 1.787 9.79-2.643.483-1.789-9.79zm32.6 5.527-58.76 10.713.11.598 8.064-1.47 1.81 9.923-8.127 1.482.094.52 58.96-10.75-.112-.623-35.817 6.53-1.783-9.78 35.676-6.504zm-40.633 8.026 1.81 9.923-2.416.44-1.808-9.924z"/><path d="m896.155 204.503.033-1.16-.048-.001-.048-.002.007-.258.008-.259.013-.106.013-.108.038.002h.037l.059-2.098.06-2.099h-.049l-.047-.002.01-.365.01-.364.043-.005.044-.003.061-2.023.061-2.023.66.018.66.019-.17 6.017-.168 6.018-.66-.018-.66-.019z" class="locked"/><path d="m891.853 199.44-.01-.011.083-2.963.082-2.962 2.139.06 2.138.06-.053 2.023-.052 2.023.035.006.035.007-.009.364-.01.365-.03-.001-.03-.001-.013.107-.013.107-.013.473-.014.473-2.127-.06-2.128-.06zm-.095 3.13.087-2.968 2.135.055 2.135.056-.04 1.435-.04 1.435.008.036.009.036h-.015l-.014-.001-.044-.093-.044-.092-.028.154-.027.155-.014-.001h-.013l-.134-.059-.134-.058.034.06.033.06.043.066.043.068v.029l-.145.038-.144.04v.011l.141.05.142.05v.023l-.072.105-.072.106-.012.02-.013.02.078-.029.077-.028.069-.025.069-.026.005.006.005.006.018.152.02.151.045-.082.045-.082h.017l.018.001-.01.025-.011.025-.03 1.08-.03 1.079-2.138-.06-2.14-.06z"/><path d="m896.416 189.389-.076 2.867-4.652-.099-.026 1.164 4.795.125-.005.178 1.328.038.005-.178.154.004-.346 12.36-6.214-.168h-.002l-.195 5.844 10.845.34.108-2.85-2.843-.122.539-19.385z"/><path d="m521.144 451.747.207-1.487 3.023.42 3.023.418-.207 1.488-.206 1.487-3.022-.42-3.023-.418zm-9.212-1.277.206-1.487 3.013.418 3.013.418-.206 1.487-.206 1.487-3.014-.417-3.012-.419zm-9.359 22.209.418-3.013 1.488.206 1.487.206-.418 3.013-.418 3.014-1.487-.206-1.487-.206zm-3.07-.425.417-3.014 1.478.205 1.477.204-.417 3.014-.419 3.013-1.477-.205-1.477-.205zm16.954 13.315.206-1.488 3.023.42 3.023.419-.206 1.487-.206 1.487-3.024-.42-3.022-.418z" class="locked"/><path d="m513.834 486.723-.118-.018-.566-.079.432-3.07.43-3.07-.6-.084-.598-.082-.006.048-.007.048.55.076.551.076-.423 3.018-.424 3.027-1.483-.205-1.483-.206.419-3.023.42-3.022.53.073.532.074-.002.009-.001.008-.166.059-.166.059v.014l-.002.014.189.052.19.051-.002.007v.007l-.095.166-.094.165.007.008.006.01.163-.076.162-.075.018.003.018.002.019.087.02.086.017.12.019.122.083-.183.082-.182.024-.006.024-.006.138.118.138.118.01-.007.008-.007-.046-.185-.046-.184.001-.007.001-.007.197.002.197.002.002-.014.002-.015-.16-.112-.16-.113-.386-.053-.384-.054.014-.046.016-.046-.595-.088-.595-.089-.565-.073-.567-.072-.006.048-.006.047.55.076.55.076-.419 3.023-.419 3.023-1.477-.204-1.477-.206.418-3.022.42-3.024.54.075.54.075.008-.047.006-.046-.569-.085-.57-.085-.57-.074-.57-.073-.007.047-.007.048.541.075.54.075-.417 3.022-.42 3.024-1.477-.206-1.478-.204.42-3.023.419-3.023.55.076.55.077.007-.047.007-.049-.565-.084-.564-.083-.585-.075-.586-.075-.006.047-.006.047.55.076.55.076-.419 3.024-.418 3.022-1.488-.206-1.487-.206.42-3.023.418-3.022.55.076.55.076.008-.048.006-.046-.583-.088-.584-.087-.566-.072-.565-.073-.007.048-.006.047.55.077.55.076-.422 3.018-.426 3.026-1.482-.205-1.482-.205.418-3.023.42-3.023.55.076.551.076.006-.047.007-.047-.583-.087-.584-.087-.566-.073-.565-.072-.007.047-.007.048.54.075.542.075-.419 3.022-.42 3.024-1.477-.206-1.477-.204.419-3.023.419-3.023.55.076.55.077.007-.048.007-.049-.55-.077-.551-.075.206-1.488.206-1.487.547.071.546.07.012-.042.012-.042-.551-.077-.552-.076.418-3.024.42-3.022 1.477.205 1.478.204-.42 3.023-.419 3.023-.54-.075-.541-.075-.006.049-.007.048 4.22.585 4.221.584.006-.047.007-.049-.545-.08-.545-.081.414-3.019.413-3.018 1.487.206 1.488.206-.42 3.023-.418 3.023-.55-.077-.551-.076-.007.048-.006.049.598.083.599.083.43-3.075.432-3.076 3.077.421 3.077.422.083-.598.082-.6-.058-.007-.057-.008-.077.55-.076.55-3.023-.418-3.023-.42.21-1.482.21-1.48 3.02.413 3.019.413-.077.55-.076.551.058.008.058.008.584-4.22.585-4.22-.058-.009-.057-.008-.075.541-.075.54-3.024-.419-3.022-.418.205-1.478.204-1.477 3.023.418 3.022.42-.07.546-.07.546.048.007.048.007.16-1.15.159-1.149-.049-.006-.048-.007-.08.544-.08.545-3.024-.418-3.023-.42.205-1.477.206-1.477 3.022.418 3.023.42-.071.545-.07.547.048.007.048.007.16-1.15.158-1.15-.048-.006-.048-.006-.08.544-.081.545-3.023-.418-3.023-.42.205-1.477.205-1.478 3.023.42 3.023.418-.075.541-.075.541.057.008.058.008.368-2.681.366-2.68-.049-.007-.048-.007-.081.545-.08.545-3.017-.423-3.017-.423.204-1.477.205-1.479 3.019.414 3.018.413-.07.547-.07.547.047.006.048.006.076-.545.076-.546.555.077.376.047.049-.343 1.26.183-.05.342.244.032.55.076-.077.552-.076.552h.089l.08-.545.08-.546 3.023.42 3.023.42-.205 1.486-.207 1.487-3.022-.42-3.023-.417.07-.547.07-.547-.042-.012-.042-.012-.076.557-.076.557-.304 2.128-.305 2.129.047.005.047.007.075-.54.075-.541 2.991.414 2.993.415.032-.007.033-.008-.207 1.489-.207 1.49-3.022-.42-3.023-.418.076-.55.076-.551-.047-.007-.047-.006-.087.583-.087.584-.072.566-.073.565.047.007.047.006.075-.54.075-.541 3.024.42 3.022.417-.204 1.479-.205 1.477-1.252-.174-1.253-.173-1.772-.232-1.772-.233.073-.56.072-.558-.043-.013-.043-.012-.084.61-.085.61 1.237.17 1.236.172-.106.763-.106.763.613.09.613.09-.1.715-.099.714-1.84-.25-1.84-.25-.433 3.085-.433 3.084-.075.585-.076.586.048.006.048.007.076-.55.076-.55.358.048.357.05.006-.049.007-.048-.357-.05-.357-.049.419-3.022.418-3.024 3.024.42 3.022.418-.206 1.488-.206 1.487-2.28-.315-2.278-.316-.007.048-.007.047 2.28.317 2.28.316-.207 1.487-.206 1.487-2.28-.316-2.28-.315-.006.048-.006.048 2.278.316 2.28.316-.206 1.487-.207 1.487-3.022-.418-3.023-.42.076-.55.076-.55-.047-.007-.047-.007-.084.565-.084.564-.156 1.164-.156 1.165.047.007.049.006.155-1.12.155-1.12 3.023.418 3.023.42-.418 3.012-.417 3.014-3.024-.42-3.022-.418.155-1.12.156-1.121-.049-.007-.048-.006-.156 1.12-.156 1.12-.221 1.594-.221 1.593-.075.551-.076.55.048.007.049.007.076-.551.076-.55 3.023.419 3.023.419-.21 1.481-.21 1.482-3.02-.413-3.019-.414.077-.55.076-.55-.048-.008-.049-.006-.077.555-.077.555-.212 1.531-.21 1.531-.551-.077-.136-.021-.054.37-1.635-.222zm.54-9.278.038-.27-.28-.039-.28-.04-.037.271-.038.27.28.04.28.038z"/><path d="m457.406 439.253.201-1.49 3.032.41 3.032.412-.203 1.492-.203 1.49-3.03-.41-3.032-.411z" class="locked"/><path d="m460.274 469.745.042-.313-.169-.02-.55-.074.073-.552.075-.552-.048-.007-.049-.006-.073.543-.077.561-3.03-.412-3.032-.411.203-1.501.201-1.482 3.032.412 3.031.41-.075.553-.074.552.049.006.047.007.157-1.162.159-1.162-.048-.007-.05-.006-.074.552-.075.552-3.032-.411-3.031-.413.201-1.48.201-1.482 3.032.41 3.031.412-.074.543-.073.542.049.007.05.006.155-1.152.157-1.153-.05-.007-.048-.006-.075.552-.075.552-3.032-.411-3.031-.412.202-1.492.203-1.49 3.026.414 3.025.416-.068.548-.07.548.05.007.047.006.158-1.152.155-1.153-.05-.007-.047-.005-.075.551-.075.552-3.032-.411-3.031-.412.203-1.491.202-1.492 3.032.412 3.031.41-.075.554-.075.551.049.007.05.006.155-1.152.157-1.152-.05-.007-.048-.007-.075.553-.075.551-3.031-.41-3.032-.413.203-1.491.202-1.491 3.032.41 3.03.412-.074.553-.075.552.049.006.05.006.155-1.151.157-1.153-.05-.007-.047-.006-.079.546-.08.547-3.027-.406-3.028-.407.203-1.49.202-1.492 3.032.411 3.03.411-.074.553-.075.552.05.006.048.007.5-3.69.502-3.69-1.852-.251-1.849-.251.099-.716.095-.717.616.078.615.079.11-.77.11-.768 1.23.166 1.23.167.29-2.14.29-2.14-.048-.008-.048-.006-.075.552-.076.552-3.03-.411-3.032-.412.203-1.491.201-1.492 3.032.412 3.032.41-.075.553-.075.552.05.007.046.006.158-1.152.155-1.153-.048-.006-.048-.006-.079.546-.078.546-3.03-.406-3.026-.405.203-1.492.201-1.491 3.032.41 3.032.412-.075.553-.075.552.05.006.047.006.157-1.152.155-1.152-.048-.007-.048-.006-.074.542-.074.542-3.031-.411-3.032-.411.202-1.483.2-1.481 3.032.411 3.032.411-.075.553-.075.552.05.007.047.006.074-.552.075-.552 1.492.203 1.491.201-.074.553-.075.552.05.007.046.006.075-.552.075-.552 3.031.411 3.032.411-.2 1.483-.202 1.481-3.032-.411-3.031-.411.073-.543.074-.542-.048-.007-.048-.006-.157 1.152-.156 1.153.05.006.046.006.075-.551.075-.552 3.031.41 3.032.412-.203 1.492-.202 1.491-3.026-.416-3.026-.415.07-.548.07-.548-.05-.006-.047-.006-.157 1.152-.156 1.152.05.007.046.006.075-.552.075-.552 3.031.412 3.032.41-.203 1.493-.202 1.491-3.03-.411-3.032-.412.074-.552.075-.552-.048-.007-.048-.006-.157 1.152-.156 1.153.049.007.047.006.075-.552.076-.552 3.03.411 3.032.412-.203 1.492-.201 1.491-3.032-.411-3.032-.412.075-.552.075-.552-.048-.007-.048-.006-.157 1.152-.156 1.153.049.007.047.006.079-.546.08-.547 3.027.406 3.027.405-.203 1.493-.201 1.49-3.032-.41-3.032-.413.075-.551.075-.552-.048-.007-.048-.006-.157 1.152-.156 1.153.049.007.047.005.074-.542.074-.542 3.031.412 3.03.41-.2 1.483-.2 1.482-3.032-.412-3.032-.412.075-.552.075-.551-.048-.007-.049-.006-.157 1.161-.157 1.163.047.006.05.007.074-.552.075-.552 3.031.411 3.032.412-.202 1.482-.2 1.481-3.032-.41-3.032-.412.074-.543.074-.542-.05-.007-.048-.007-.156 1.153-.156 1.153.049.006.049.007.074-.552.075-.552 3.031.411 3.032.411-.203 1.493-.203 1.49-3.025-.415-3.026-.415.069-.548.069-.548-.048-.007-.049-.007-.235 1.734-.235 1.733.05.007.047.007.154-1.133.154-1.133 3.031.411 3.032.411-.412 3.032-.412 3.031-3.031-.41-3.032-.413.155-1.133.153-1.133-.048-.006-.048-.007-.236 1.733-.235 1.734.049.006.047.007.08-.546.08-.547 3.026.406 3.028.406-.203 1.492-.203 1.491-3.031-.411-3.032-.412.076-.552.075-.552-.049-.007-.049-.006-.156 1.152-.157 1.153.05.007.049.006.073-.542.072-.543 3.032.412 3.032.411-.201 1.482-.202 1.482-3.031-.411-3.032-.412.076-.552.075-.552-.049-.007-.049-.006-.157 1.162-.158 1.162.05.006.047.007.075-.552.074-.551 3.032.41 3.032.412-.201 1.482-.205 1.501-3.03-.412-3.032-.411.076-.562.074-.542-.049-.007-.048-.006-.075.552-.075.552-.551-.075-.197-.025-.043.313zm128.954-255.506.46 2.213-11.487 2.39-.46-2.213zm-219.784 25.136-.803 5.02-6.446-.967 1.23-7.801 4.174.636.07-.454-4.628-.706-1.316 8.575-1.369-.214 1.53-10.173 3.308.48 3.906-25.485 9.61 1.477-4.121 27.092-4.279-.666-.072.473 4.284.668-.424 2.755zm-1.543 9.728.66-4.3-3.674-.586-.158 1.031-.486-.074.161-1.054-2.439-.373-.945 6.033 6.673 1.023.228-1.388-4.254-.654.286-1.812.502.077-.233 1.49zm-27.632 21.278.674-4.58 3.95.635-.313 2.105.304.049.6-3.921-.314-.05-.24 1.498-3.948-.633.558-3.582 3.92.629-.078.529.328.053.13-.891-4.24-.68.169-1.156 6.115.952-1.217 8.006 1.642.26-.173 1.342-1.621-.256-.11.647-1.883-.273.155-1.066-.289-.046-.155 1.065zM75.25 165.004l-1.637 15.388 11.738 1.25.014-.212.297.031-.014.213 11.04 1.173.415-3.88-2.28-.241.036-.318 2.273.24.206-1.876-3.513-.38.8-7.566 3.518.382.181-1.749Zm2.373 2.022 15.436 1.634-.8 7.565-2.151-.222-.208 1.899 3.24.346-.033.31-7.045-.75-.238 2.124-.323-.034.026-.24-8.252-.877.809-7.433-.907-.098zm54.614 15.705-.453 3.597-7.475-.943 1.276-10.11 7.47.942-.189 1.493-6.057-.765-.924 7.326 4.7.594.873-6.908 1.36.171zM109.95 307.368l4.732-5.578 5.544 4.704-4.732 5.578zm36.088-122.753-.454 3.597-7.474-.943 1.275-10.11 7.47.942-.188 1.493-6.057-.765-.924 7.326 4.7.594.872-6.909 1.36.172z"/></g></g></svg>