<svg xmlns="http://www.w3.org/2000/svg" xml:space="preserve" viewBox="0 0 1062.483 535.174"><g class="shadow"><path fill="#987f00" d="m521.604 459.925-.353 2.545 4.19.566.352-2.544zm-5.261-14.088 8.018 1.111.266-1.92-8.017-1.112zm-6.123 42.751 7.894 1.094.262-1.89-7.894-1.095z"/><g fill="#666"><path fill="#555" d="m511.888 450.447.207-1.49 3.02.418 3.02.42-.206 1.49-.207 1.49-3.02-.418-3.02-.418zm8.382 7.437.207-1.49 3.024.424 3.025.423-.202 1.487-.2 1.488-3.03-.42-3.03-.421zm-11.8 17.22.206-1.481 3.02.418 3.021.419-.206 1.48-.204 1.482-3.021-.418-3.02-.42zm8.809 4.357.205-1.48 3.03.42 3.03.42-.205 1.481-.205 1.48-3.03-.42-3.03-.419zm-10.09 4.888.207-1.491 3.02.418 3.021.419-.207 1.49-.206 1.49-3.021-.417-3.02-.419z"/><path d="m495.653 476.464 1.067-7.696 6.138.85 6.137.852-.48 3.465-.481 3.466.048.007.049.006.049-.358.05-.358 3.083.422 3.085.424.302-2.145.302-2.143-.059-.008-.057-.008-.077.552-.076.552-3.03-.42-3.03-.42.21-1.486.211-1.485 3.027.414 3.025.415-.077.552-.076.552.058.007.059.008.159-1.151.16-1.152-.058-.008-.059-.008-.076.552-.077.55-3.03-.419-3.03-.42.212-1.485.21-1.485 3.026.414 3.026.415-.077.552-.077.551.059.008.058.008.16-1.152.16-1.151-.059-.01-.058-.007-.076.552-.077.552-3.024-.425-3.025-.424.2-1.487.203-1.486 3.03.42 3.029.42-.076.552-.076.551.058.01.057.007.083-.6.083-.6-3.088-.429-3.088-.427.42-3.03.42-3.03 3.084.422 3.084.422.083-.6.083-.6-.048-.006-.048-.007-.08.546-.082.547-3.03-.42-3.029-.421.205-1.48.206-1.481 3.03.419 3.03.42-.075.542-.076.542.059.008.057.008.154-1.147.155-1.149-.049-.005-.048-.007-.081.546-.081.546-3.03-.42-3.03-.42.211-1.485.21-1.485 3.027.414 3.026.414-.077.552-.076.552.058.008.057.008.374-2.691.373-2.692-.058-.007-.059-.008-.076.552-.076.551-3.025-.424-3.024-.424.2-1.487.201-1.486 3.031.42 3.03.42-.077.551-.076.552.058.008.058.008.077-.552.076-.55.552.075.552.076.04-.267.774.108-.04.267.552.076.551.077-.076.551-.076.552.049.007.048.007.076-.552.076-.552 3.031.42 3.03.42-.207 1.49-.207 1.492-3.03-.42-3.03-.42.077-.551.076-.552-.047-.007-.048-.007-.087.585-.087.585-.072.567-.073.567.047.006.048.007.076-.552.077-.552 3.03.42 3.03.42-.206 1.492-.207 1.49-3.03-.42-3.03-.42.076-.551.077-.552-.047-.007-.048-.006-.087.584-.087.585-.073.568-.072.567.047.006.047.006.077-.552.076-.551 3.024.424 3.025.424-.2 1.487-.201 1.486-3.031-.419-3.03-.42.077-.552.076-.552-.048-.006-.047-.007-.084.566-.084.565-.214 1.583-.215 1.584 2.304.32 2.304.319-.1.716-.1.716-.454-.062-.455-.064-.112.769-.11.77-1.845-.252-1.845-.25-.434 3.092-.434 3.092-.076.586-.076.587.049.007.047.006.077-.552.076-.551.358.05.358.049.007-.049.007-.048-.358-.05-.359-.05.42-3.03.42-3.03 3.03.421 3.03.42-.207 1.49-.206 1.491-2.284-.317-2.285-.317-.007.049-.007.048 2.285.317 2.285.317-.207 1.491-.207 1.49-2.284-.316-2.284-.316-.007.048-.007.048 2.285.317 2.285.316-.207 1.491-.207 1.49-3.03-.419-3.03-.42.076-.552.077-.552-.048-.006-.048-.007-.084.566-.084.565-.156 1.168-.155 1.167.047.006.048.007.157-1.133.156-1.132 3.025.424 3.024.424-.414 3.026-.414 3.026-3.03-.42-3.03-.42.156-1.124.155-1.122-.049-.007-.048-.007-.156 1.124-.156 1.122-.221 1.598-.222 1.597-.076.552-.076.552.048.006.049.007.076-.552.077-.552 3.03.42 3.03.42-.211 1.485-.21 1.486-3.027-.415-3.025-.414.076-.552.076-.552-.046-.007-.048-.006-.087.585-.087.584-.073.568-.073.567.048.007.048.006.076-.551.076-.552 3.03.42 3.03.42-.207 1.49-.206 1.49-3.03-.419-3.03-.42.077-.552.076-.552-.049-.006-.048-.007-.076.552-.076.552-1.492-.207-1.49-.206.427-3.08.426-3.077-3.083-.433-3.082-.432.043-.354.044-.354-.048-.006-.048-.007-.479 3.456-.473 3.417-6.138-.85-6.137-.85z"/></g></g></svg>