<svg xmlns="http://www.w3.org/2000/svg" xml:space="preserve" id="svg1" width="1559.572" height="1032.494" version="1.1"><g id="First_Floor" data-keep-with-group="Ground_Level"><g id="Stairs-1" fill="#987f00"><g id="Stairs-1-E" transform="translate(2.363 9.513)"><g id="Stairs-Common-E"><path d="M798.683 306.488v-.711l.234-.003c.129-.001.348 0 .486.002l.252.004.003-.763.003-.764.703-.003.702-.003v2.953h-2.383zM795.802 305.723v-1.476l.708.003.709.003.003.764.003.763.252-.004c.138-.002.357-.003.486-.002l.234.003v1.423h-2.395zM858.808 317.633v-2.241h2.952v4.482h-1.387v-2.537h-.178v2.537h-1.387zM801.493 321.19v-2.098h1.352v2.146h.486v-2.146h1.366l-.007.018c-.004.011-.007.955-.007 2.099v2.08h-3.19z"/></g></g><g id="Stairs-1-A"><path d="M765.62 270.072a25.591 25.591 0 0 1-.009-.951v-.942h1.536l-.004.948-.003.947-.756.004a15.96 15.96 0 0 1-.764-.006zM745.104 270.072a25.591 25.591 0 0 1-.009-.951v-.942h1.535v1.902h-.758c-.417 0-.763-.004-.768-.009zM755.122 279.748v-.849h-1.562v-1.897h5.122v1.897h-1.563v1.698h-1.997z"/></g><g id="Stairs-1-W" transform="translate(2.363 9.513)"><g id="Stairs-Common-W"><path d="M702.756 322.427c-.004-.48-.008-1.413-.008-2.072v-1.199l-.014-.014-.014-.015h1.38v2.134h.486v-2.134h1.363v4.174h-3.185zM709.246 306.503l.004-.708.483-.003.483-.003v-1.518h1.423v.49c0 .27-.004.932-.008 1.471l-.008.98h-2.38zM706.37 306.225c-.004-.543-.008-1.205-.008-1.471v-.483h1.423v1.518l.483.003.484.003.003.708.003.709h-2.38zM645.688 317.645v-2.241h2.952v4.482h-1.387l-.002-.258-.001-1.275v-1.017h-.184v1.017l-.001 1.275-.002.258h-1.375z"/></g></g></g><g id="Floors-1" fill="#666"><path id="Floor-1-E" d="M774.176 297.111v13.483h-1.456v11.585h3.573l-.008.183-.008.184h1.494v-.367h4.446v.249h-3.248v6.105h6.129v-6.105h-1.399v-.249h2.467v.367h1.493l-.007-.184-.008-.183h4.07v6.354h12.142v.071l.678.004.679.002.003 1.071.004 1.07h.474v-2.146h1.375v.023h.344v.296h-.119v2.692l1.402-.003 1.402-.003.003-1.342.003-1.344h-1.209v-.296h1.446v6.948h-6.485v5.81h5.964v-3.355h3.675v-3.237h.581v.249h-.344v3.237h-3.426v2.869h5.999v-6.106h-.735v-.249h1.719v.367h1.494l-.008-.183-.007-.184h7.663v.367h1.482v-.367h8.892v.367h1.482v-.367h4.198v.367h1.493l-.007-.183-.008-.184h11.362v.249h-6.9v6.106h6.129v-3.118h2.633v-2.988h-.368v-.249h1.221v.367h1.494v-.367h.609c.334 0 .889.003 1.233.008l.624.007v.222h-.818v2.466h2.917v-2.466h-.617v-.226h3.699v-5.43h-.735l.003-.122.004-.121.364-.003.365-.003v-6.094h-6.012l.003.815.003.815 1.592.003 1.591.003v4.458l.3.003.299.003.004.12.004.119-.472.008c-.26.005-.761.008-1.115.008h-.643v-2.537h-.178v2.537h-.507c-.279 0-.903-.003-1.387-.008l-.881-.008v-.245h1.15v-1.64c0-.902-.003-2.273-.007-3.047l-.008-1.407h-6.114v3.664h2.395v.439l-.122-.003-.121-.004-.004-.091-.004-.092h-2.156v2.181h2.158v-.51h.249v.51h1.09v.249h-7.149v-.249h1.02v-.51h.236v.51h2.158v-2.181h-2.158v.189h-.236v-.438h2.394v-3.664h-6.129v6.094h1.221v.249h-11.609l.004-.122.003-.121 5.066-.003 5.066-.003v-6.094h-12.497v6.094h.877v.249h-2.466v-.249h1.34v-6.094h-6.118v3.664h2.395l-.003.216-.004.216-.121.004-.122.003v-.19h-2.158v2.181h2.158v-.51h.249v.51l.448.003.448.003.003.122.003.121h-7.162v-.249h1.21v-.51h.249v.51h2.145v-2.181h-2.144l-.004.092-.003.092-.122.003-.121.003v-.439h2.406v-3.664h-6.129v6.094h1.02v.249h-5.183l.003-.121.004-.121 1.953-.004 1.954-.003v-6.094h-6.13v6.094h.735v.249h-.972v-6.343l-6.441-.003-6.441-.003-.004-.062-.004-.062h-3.176v-.238h3.178v-5.714h-5.265v1.043h-.248v-4.208l.014-.009c.008-.006.384-.012.836-.014l.821-.004v1.52h.972v1.434h.486v-1.434h.973v-1.518h1.411v-3.403h-5.146v.237l-3.281.003-3.281.003-.003 1.474-.004 1.472h-.237l-.003-1.472-.003-1.474-3.062-.003-3.062-.003v3.937h-.249v-3.937h-7.017v-13.483zm17.301 17.918h.237v1.921h-6.616v-.925h.249v.676h6.13v-.836zm6.439 4.446h.248v3.189h.593v.238h-.841v-1.713zm27.056 16.054v1.482h.474v-1.482h-.237zm11.101 1.553-.007.08a2.116 2.116 0 0 0-.008.157c0 .042.004.113.008.157l.007.08h1.464l.007-.08c.004-.044.008-.115.008-.157 0-.042-.004-.113-.008-.157l-.007-.08h-.732z"/><path id="Floor-1-A" d="M747.052 248.383v4.266h-.136v1.128h.136v7.079h-.136v11.725h.217v.285h-.217v2.69h6.644v1.441l.819.003 1.335.007c.285.002 1.069-.001 1.743-.006l1.225-.009v-1.436h6.644v-2.69h-.218l.003-.139.004-.139.105-.004.106-.004v-11.724h-.136v-7.079h.136v-1.128h-.136v-4.266h-9.07zm-2.391 12.473-.004.489-.003.489h.278v.557l-1.865.003-1.864.004-.004 2.231-.003 2.232h-2.391v5.377h-5.787v9.419h-.285v1.997h.285v2.041h1.095v12.406h3.958v-12.406h8.614v-2.829h3.845v.353h-.367v3.071h3.125v-3.071h-1.046v-.353h1.223v2.826h.815v.285h3.682v-.285h.815v-2.826h1.25v.353h-1.073v3.071h3.125v-3.071h-.34v-.353h.856v.353h-.34v3.071h2.937v-3.071h-.885v-.353h1.061v2.829h8.808v12.42h3.905v-12.42h1.126l-.003-6.575-.004-6.875-2.926-.004-2.837-.003v-5.377h-2.391l-.004-2.232-.003-2.231-1.865-.004-1.864-.003v-.557h.278l-.004-.489-.003-.489h-1.97v6.605l.027.007.027.008v.268h-.054v.435h1.535v-.435h-.054v-.272h.326v4.729l.021.008.02.008v.269h-1.848v6.114h2.731v-3.587h.286v3.859h-1.512c-3.777.002-8.301.011-9.103.02l-.88.009v1.696h-2.011v-1.696l-.879-.009c-.804-.009-5.368-.018-9.117-.02h-1.512v-3.859h.286v3.587h2.731v-6.114h-1.848v-.269l.02-.008.021-.008v-4.729h.326v.272h-.055v.435h1.536v-.435h-.055v-.272h.055v-6.616h-.985zm.434 9.225v1.058c0 .581.004 1.061.009 1.066.005.005.351.009.768.009h.758v-2.133h-.767zm20.516 0v2.12h1.535v-2.12h-.767zm-16.875.014h14.769v2.485l.092.004.092.004.003.139.004.139h-4.878v-.529h.285v.258h4.117l-.004-1.111-.003-1.111-2.055-.003-2.055-.004v.259h-.285v-.259l-2.694.004-2.694.003-.003 1.247-.003 1.246h-4.864v-.285h.176v-.244h.286v.257h4.117v-2.228l-2.055.004-2.055.003-.004.126-.004.126h-.285v-.265zm-5.122 2.119h.326v.272h-.041v.829h-.285v-.55zm24.701 0h.313v1.101h-.286v-.829h-.027v-.136z"/><path id="Floor-1-W" d="M734.113 297.799v12.819h-7.044v3.925h-.249v-3.925h-6.13v2.941h-.237v-2.941l-3.287-.003-3.288-.003-.003-.121-.003-.122h-5.145v3.403h1.422v1.53h.973v1.422h.486v-1.422h.984l-.002-.513a95.62 95.62 0 0 1 0-.765l.002-.252h1.435v.023h.213v1.143c0 .628.004 1.575.008 2.104l.008.963h-.265v-1.044h-5.264v5.715h3.189v.237h-3.189v.131H695.85v6.343h-.972v-.237l.365-.003.365-.003.003-3.05.003-3.05h-6.131v6.105h3.902v.238h-5.182v-.237l.513-.003.513-.003.003-3.05.003-3.05h-6.13v3.663h2.407v.439h-.249v-.19h-2.158l.003 1.094.003 1.094 1.076.003 1.076.003v-.522h.249v.521h1.209v.237l-1.87.003c-1.029.002-2.64.002-3.581 0l-1.71-.003v-.237h.901v-.521h.249v.522l1.076-.003 1.076-.003.003-1.094.003-1.094h-2.158v.19h-.249v-.439h2.395v-3.663h-6.094l.003 3.05.003 3.05.655.003.655.003v.237h-1.589v-.047h-.878v-.155h.842v-6.141h-12.437v6.141l.483.003.483.003.004.074.003.075h-.999l-.006.023-.007.024h-1.455v-.237l.59-.003.59-.003.003-3.05.003-3.05h-6.095v3.664h2.395v.438h-.237v-.19h-2.158v2.194l1.076-.003 1.076-.003.003-.258.004-.258h.236l.003.258.003.258.507.003.507.003v.236l-1.764.003c-.97.003-2.579.003-3.575 0l-1.811-.003v-.236l.543-.003.542-.003.004-.258.003-.258h.236l.003.258.003.258 1.076.003 1.076.003v-2.194h-2.158v.19h-.237v-.438h2.395v-3.664h-6.13l.003 3.05.003 3.05.572.003.573.003v.233l-.892.008c-.49.004-1.114.008-1.387.008h-.496l-.001-.258c-.001-.142-.003-.714-.003-1.272l-.002-1.013-.086-.004-.086-.003v2.55h-.632c-.348 0-.85-.004-1.115-.008l-.482-.008v-.233h.593v-4.47l1.597-.003 1.598-.003.003-.815.004-.815h-6.012v6.106h.735v.237h-.735v5.431l1.847.002 1.846.003.004.11.003.11h-.617v2.466h2.916v-2.466h-.818v-.222l.625-.007c.343-.005.786-.008.984-.008h.36v.249h-.902v3.45h-.272v-.771h-5.976v3.427h5.975l.003-.584.004-.584.133-.004.133-.003v1.175h6.13v-2.87h-2.632v-3.236h-1.103v-.249h2.218v.249h-.878v2.987h2.644v3.119h6.13v-6.106h-6.414v-.249h10.86v.249h-4.197v6.106l3.05-.003 3.05-.003.006-2.052c.003-1.128.01-2.057.015-2.065l.01-.015h.236v.189h2.941v-2.158h-2.941v.487h-.249v-.487h-.427v-.249l2.096.003 2.096.003.003.122.003.122h-.333v2.157h1.068v.249h-4.233v3.7h6.082v-3.699l-.181-.003-.181-.003-.003-.122-.003-.122h.641v3.949l3.062-.003 3.062-.003.002-3.051.004-3.05h-7.506v-.249l4.444.003 4.443.003.003.122.004.122h-1.151v6.106h6.13v-3.676h-2.395v-.462h.236l.003.109.004.11 1.076.003 1.076.003v-2.193h-2.158v.486h-.237v-.486h-1.103v-.249h7.647v.367h1.494v-.367h1.72v.249h-.747v6.106h6.011v-2.87h-3.426v-3.236h-.345v-.249h.581v3.236h3.19v-.118h.486v3.48l2.982-.003 2.982-.003v-5.81h-1.577v-.237l.785-.003.786-.003.003-1.147.003-1.147h-3.189v2.3h.118v.237h-3.415v-1.218c0-.67.004-2.231.008-3.468l.008-2.25.712.003.713.003.003.134.004.133h-1.222v2.715h2.833v-2.715h-.13v-.273h.332v-.023l.691.003.69.002.003 1.07.003 1.071h.474v-2.147l.682.004.682.003v-.089h12.141v-6.355h4.055v.379h1.494v-.379h2.466v.249h-1.399v6.106h6.13v-6.106h-3.249v-.249h4.45l-.008.19-.008.189h1.506l-.008-.189-.007-.19h3.572v-11.572h-1.376V297.8Zm-13.66 17.242h.237v1.671h6.13v-.675h.249v.924h-6.616v-.96zm-6.201 4.445v3.427h-.854v-.237h.593l.003-1.591.003-1.592.127-.004zm-47.782 9.7h7.647v.154h-7.647v-.077z"/><g id="Floors-Locked-1" fill="#555"><path id="Floor-Locked-1-E" d="M822.933 335.043v2.193h2.144l.004-.112.004-.113h-.125v-1.482h.119v-.486h-1.073zm2.395 0v.486h.118v1.482h-.118v.463h-2.395v3.675h6.117v-6.106h-1.138v.118h-1.482v-.118h-.551zm3.971 0v6.106h6.131V337.2l.316.001h.318l-.005-.059-.003-.06h1.498l-.004.06-.004.059h.536l.537-.001v-2.157h-.332v.118h-1.482v-.118h-3.752zm6.403 2.395v3.711l3.038-.003 3.039-.003v-3.699l-2.117-.002-2.116-.003.004.065.004.064h-1.498l.004-.065.004-.065h-.181z"/></g></g></g></svg>