<svg xmlns="http://www.w3.org/2000/svg" xml:space="preserve" viewBox="0 0 3.969 3.969"><path d="M134.186 148.542a.132.132 0 0 0-.132.133.132.132 0 0 0 .132.133h1.848a.79.79 0 0 1 .81.81v1.846a.132.132 0 0 0 .133.131.132.132 0 0 0 .133-.13v-1.847c0-.602-.478-1.076-1.076-1.076zm-.474.766a.57.57 0 0 0-.57.568v2.065c0 .313.256.57.57.57h2.064a.57.57 0 0 0 .569-.57v-2.065a.57.57 0 0 0-.569-.568zm0 .264h2.064a.3.3 0 0 1 .305.304v2.065a.303.303 0 0 1-.305.306h-2.064a.303.303 0 0 1-.305-.306v-2.065a.3.3 0 0 1 .305-.304z" shape-rendering="crispEdges" color="#000" style="-inkscape-stroke:none" transform="translate(-133.141 -148.542)"/></svg>