<svg xmlns="http://www.w3.org/2000/svg" xml:space="preserve" id="svg5" version="1.1" viewBox="0 0 3.691 3.691"><g id="layer1" transform="translate(-90.866 -130.849)"><g id="g1745" transform="rotate(180 92.71 132.695)"><path shape-rendering="crispEdges" id="path1575" fill="#000" stroke-linecap="round" stroke-linejoin="round" d="M90.998 132.563a.132.132 0 0 0-.133.13c0 .66.353 1.27.924 1.6.57.33 1.273.33 1.844 0 .57-.33.924-.94.924-1.6a.132.132 0 0 0-.133-.13.132.132 0 0 0-.133.13 1.58 1.58 0 1 1-3.16 0 .132.132 0 0 0-.133-.13z" color="#000" style="-inkscape-stroke:none"/></g></g></svg>